<?xml version="1.0" encoding="UTF-8"?>
<svg width="80px" height="68px" viewBox="0 0 80 68" version="1.1" xmlns="http://www.w3.org/2000/svg" xmlns:xlink="http://www.w3.org/1999/xlink">
    <!-- Generator: Sketch 43.1 (39012) - http://www.bohemiancoding.com/sketch -->
    <title>noun_Architecture_1598781</title>
    <desc>Created with Sketch.</desc>
    <defs></defs>
    <g id="Page-1" stroke="none" strokeWidth="1" fill="none" fill-rule="evenodd">
        <g id="noun_Architecture_1598781" fill-rule="nonzero" fill="#000000">
            <g id="Group">
                <rect id="Rectangle-path" x="28.916" y="57.174" width="1.976" height="4.495"></rect>
                <path d="M35.979,46.753 L35.979,42.259 L26.282,42.259 L26.282,46.051 C26.355,46.265 26.431,46.468 26.514,46.659 L26.555,46.754 L30.892,46.754 L35.979,46.753 Z" id="Shape"></path>
                <polygon id="Shape" points="30.892 32.315 26.282 32.315 26.282 36.811 35.977 36.811 35.977 32.315 31.369 32.315"></polygon>
                <path d="M25.806,32.315 L25.698,32.315 C25.583,33.7 25.487,35.241 25.441,36.81 L25.806,36.81 L25.806,32.315 L25.806,32.315 Z" id="Shape"></path>
                <path d="M30.892,37.287 L25.429,37.287 C25.396,38.813 25.419,40.35 25.528,41.781 L30.892,41.781 L30.892,37.287 L30.892,37.287 Z" id="Shape"></path>
                <polygon id="Shape" points="31.369 51.726 35.977 51.726 36.454 51.726 41.065 51.726 41.065 47.23 36.455 47.231 31.369 47.231"></polygon>
                <polygon id="Shape" points="36.454 32.315 36.454 36.811 46.15 36.811 46.15 32.315 41.542 32.315"></polygon>
                <polygon id="Shape" points="36.454 52.202 36.454 56.698 41.54 56.698 46.15 56.698 46.15 52.202 41.542 52.202"></polygon>
                <polygon id="Shape" points="35.977 56.698 35.977 52.202 31.368 52.202 30.892 52.202 28.916 52.202 28.916 56.698 30.892 56.698 31.368 56.698"></polygon>
                <path d="M25.806,44.104 L25.806,42.259 L25.567,42.259 C25.626,42.903 25.705,43.522 25.806,44.104 Z" id="Shape"></path>
                <polygon id="Shape" points="35.977 57.174 31.368 57.174 31.368 61.669 35.979 61.669 36.455 61.669 41.065 61.669 41.065 57.174 36.454 57.174"></polygon>
                <polygon id="Shape" points="36.455 42.259 36.455 46.753 41.542 46.753 46.152 46.753 46.152 42.259 41.54 42.259"></polygon>
                <polygon id="Shape" points="30.892 47.231 26.763 47.231 28.71 51.726 30.892 51.726"></polygon>
                <path d="M26.282,31.839 L30.892,31.839 L30.892,27.345 L26.232,27.345 C26.13,28.098 25.92,29.757 25.739,31.839 L25.806,31.839 L26.282,31.839 Z" id="Shape"></path>
                <polygon id="Shape" points="41.065 37.287 31.369 37.287 31.369 41.782 35.979 41.782 41.065 41.782"></polygon>
                <polygon id="Shape" points="33.308 25.271 34.544 29.592 38.975 28.323 39.434 28.191 43.867 26.923 42.631 22.603 33.309 25.271"></polygon>
                <path d="M40.347,0.164 L39.653,0.164 L0,17.619 L0.694,19.197 L4.075,17.709 L4.075,67.836 L75.925,67.836 L75.925,17.709 L79.305,19.197 L80,17.619 L40.347,0.164 Z M74.201,17.111 L74.201,66.112 L46.152,66.112 L46.152,62.146 L41.54,62.146 L36.455,62.146 L36.455,66.112 L35.978,66.112 L35.978,62.145 L31.368,62.145 L30.891,62.145 L28.915,62.145 L28.915,66.112 L28.438,66.112 L28.438,52.252 L26.077,46.85 C23.848,41.751 25.49,29.182 25.781,27.107 L5.799,27.107 L5.799,17.112 L5.432,17.112 L40,1.895 L74.567,17.112 L74.201,17.112 L74.201,17.111 Z" id="Shape"></path>
            </g>
        </g>
    </g>
</svg>