<?xml version="1.0" encoding="UTF-8"?>
<svg width="90px" height="82px" viewBox="0 0 90 82" version="1.1" xmlns="http://www.w3.org/2000/svg" xmlns:xlink="http://www.w3.org/1999/xlink">
    <!-- Generator: Sketch 43.1 (39012) - http://www.bohemiancoding.com/sketch -->
    <title>noun_Architecture_1312391</title>
    <desc>Created with Sketch.</desc>
    <defs></defs>
    <g id="Page-1" stroke="none" stroke-width="1" fill="none" fill-rule="evenodd">
        <g id="noun_Architecture_1312391" transform="translate(0.000000, -1.000000)" fill-rule="nonzero" fill="#000000">
            <path d="M24.2,18.275 L16.65,19.875 L16.65,18.125 L24.2,15.525 L24.2,18.275 Z M29.25,18.325 L29.25,72.474 L11.15,68.025 L11.15,22.025 L29.25,18.325 Z M59.9,25.675 L77.9,29.425 L77.9,68.325 L59.9,72.724 L59.9,25.675 Z M56.5,40.825 L56.5,73.525 L45.5,76.275 L45.5,40.825 L56.5,40.825 Z M32.75,74.475 L44.8,77.475 L45.15,77.475 L78.55,69.225 L78.6,69.225 L82.9,68.076 L90,69.026 L45,83.026 L-1.42108547e-14,69.026 L7,68.076 L10.45,68.975 L10.5,68.975 L32.7,74.475 L32.75,74.475 Z M33.4,40.825 L44.45,40.825 L44.45,76.275 L33.4,73.525 L33.4,40.825 L33.4,40.825 Z M54.45,38.425 L54.45,39.776 L35.5,39.776 L35.5,38.425 L54.45,38.425 Z M48.6,26.875 L58.85,25.625 L58.85,72.975 L57.55,73.326 L57.55,40.276 C57.55,39.942 57.383,39.776 57.05,39.776 L55.5,39.776 L55.5,37.925 C55.5,37.559 55.333,37.375 55,37.375 L48.6,37.375 L48.6,26.875 Z M55.85,24.975 L55.85,24.026 L63.85,22.876 L63.85,25.426 L59.45,24.527 L59.3,24.527 L55.85,24.975 Z M29.8,17.175 L29.65,17.175 L25.25,18.075 L25.25,15.425 L33.3,16.625 L33.3,17.575 L29.8,17.175 Z M30.3,18.275 L40.5,19.424 L40.5,37.374 L34.95,37.374 C34.617,37.374 34.45,37.558 34.45,37.924 L34.45,39.775 L32.85,39.775 C32.517,39.775 32.35,39.941 32.35,40.275 L32.35,73.275 L30.3,72.724 L30.3,18.275 L30.3,18.275 Z M38.8,4.525 L38.85,4.525 L44.05,3.075 L44.05,37.375 L41.55,37.375 L41.55,18.975 C41.55,18.675 41.4,18.493 41.1,18.425 L36.45,17.925 L36.45,5.175 L38.8,4.525 Z M39.25,3.325 L39.25,2.425 L44.15,0.975 L44.15,1.925 L39.25,3.325 Z M50.65,2.425 L50.65,3.375 L45.2,1.975 L45.2,0.975 L50.65,2.425 Z M51.05,4.575 L51.1,4.575 L53.45,5.175 L53.45,25.225 L48.05,25.875 C47.717,25.941 47.55,26.108 47.55,26.375 L47.55,37.375 L45.1,37.375 L45.1,3.075 L51.05,4.575 Z M72.5,25.475 L72.5,27.276 L64.9,25.626 L64.9,22.976 L72.5,25.475 Z" id="Shape"></path>
        </g>
    </g>
</svg>