<?xml version="1.0" encoding="UTF-8"?>
<svg width="90px" height="80px" viewBox="0 0 90 80" version="1.1" xmlns="http://www.w3.org/2000/svg" xmlns:xlink="http://www.w3.org/1999/xlink">
    <!-- Generator: Sketch 43.1 (39012) - http://www.bohemiancoding.com/sketch -->
    <title>noun_Architecture_795297</title>
    <desc>Created with Sketch.</desc>
    <defs></defs>
    <g id="Page-1" stroke="none" stroke-width="1" fill="none" fill-rule="evenodd">
        <g id="noun_Architecture_795297" fill-rule="nonzero" fill="#000000">
            <g id="Group" transform="translate(0.000000, 0.637840)">
                <path d="M45,0.11193 C42.7670679,0.111765539 40.6255457,0.998731247 39.0466376,2.57766601 C37.4677295,4.15660077 36.5807999,6.29813789 36.581002,8.53107 C36.5808635,10.7639605 37.4678212,12.905436 39.0467225,14.4843188 C40.6256237,16.0632017 42.7671095,16.9501345 45,16.94997 C47.2328905,16.9501345 49.3743763,16.0632017 50.9532775,14.4843188 C52.5321788,12.905436 53.4191365,10.7639605 53.418998,8.53107 C53.4192001,6.29813789 52.5322705,4.15660077 50.9533624,2.57766601 C49.3744543,0.998731247 47.2329321,0.111765539 45,0.11193 L45,0.11193 Z M38.27854,16.25618 L18.814922,69.7274 C17.906309,72.2239 17.781949,72.7144 18.059678,74.3159 C18.561221,76.6335 19.0982,78.4528 19.49915,78.5986 C19.9001,78.7457 21.478235,77.6966 23.351129,76.2429 C24.593281,75.1947 24.812447,74.7381 25.721059,72.2417 L45,19.2773 L64.27894,72.2417 C65.18755,74.7381 65.40672,75.1947 66.64887,76.2429 C68.52286,77.6959 70.10467,78.7448 70.50557,78.5986 C70.90652,78.4516 71.43989,76.633 71.94032,74.3159 C72.21791,72.7144 72.09355,72.2239 71.18508,69.7274 L51.726204,16.26828 C50.7780466,17.0921767 49.686652,17.7349531 48.506319,18.16463 C47.3391888,18.5851258 46.1054713,18.7904586 44.865061,18.77066 C43.7152469,18.7590064 42.5755724,18.5541416 41.493681,18.16463 C40.3141195,17.7307806 39.2243125,17.0838907 38.27854,16.25618 L38.27854,16.25618 Z M11.14168,18.35178 L0,29.49585 L7.959698,37.4553 L10.559278,34.85355 L11.861416,36.15313 L9.259465,38.7554 L17.219187,46.7151 L22.425415,41.5111 L23.725205,42.8109 L18.521349,48.0172 L23.095459,52.5913 L29.042747,36.25251 L11.14168,18.35178 L11.14168,18.35178 Z M78.85832,18.35378 L60.95965,36.25499 L66.90454,52.5911 L71.47865,48.0171 L68.8791,45.4149 L70.17886,44.1129 L72.78081,46.7149 L80.74049,38.7552 L75.53663,33.55124 L76.83642,32.24905 L82.0403,37.4552 L90,29.49572 L78.85832,18.35378 L78.85832,18.35378 Z M37.646375,44.8563 L31.699111,61.1946 L33.85832,63.354 L35.740535,65.2361 L40.944368,60.0321 L42.246553,61.3321 L37.040302,66.5359 L45,74.4956 L52.959698,66.5359 L50.357747,63.9363 L51.657537,62.6341 L54.259465,65.2361 L56.144052,63.3516 L58.300889,61.1946 L52.355973,44.8587 L45.002372,52.2121 L37.646375,44.8563 L37.646375,44.8563 Z" id="Shape"></path>
            </g>
        </g>
    </g>
</svg>