<?xml version="1.0" encoding="UTF-8"?>
<svg width="90px" height="64px" viewBox="0 0 90 64" version="1.1" xmlns="http://www.w3.org/2000/svg" xmlns:xlink="http://www.w3.org/1999/xlink">
    <!-- Generator: Sketch 43.1 (39012) - http://www.bohemiancoding.com/sketch -->
    <title>noun_Architecture_354603</title>
    <desc>Created with Sketch.</desc>
    <defs></defs>
    <g id="Page-1" stroke="none" stroke-width="1" fill="none" fill-rule="evenodd">
        <g id="noun_Architecture_354603" fill-rule="nonzero" fill="#000000">
            <path d="M89.3,53.1 L48.7,53.1 L48.7,50.8 L81.6,50.8 L81.6,49.1 L48.7,49.1 L48.7,29.7 L78,45.2 L78.8,43.7 L48.7,27.7 L48.7,25 L77.8,40.4 L78.6,38.9 L48.7,23.1 L48.7,13 L47,13 L47,22.2 L41.6,19.3 L41.6,0.7 L39.9,0.7 L39.9,18.4 L26.5,11.3 L26.5,11.3 L26.5,11.3 L26.5,11.3 L26.5,11.3 L0.7,25.5 L0.7,32.1 L6.4,29 L6.4,54.8 L26.5,54.8 L26.5,54.8 L47,54.8 L47,63.2 L48.7,63.2 L48.7,54.8 L89.3,54.8 L89.3,53.1 L89.3,53.1 Z M47,49.1 L41.6,49.1 L41.6,25.9 L47,28.8 L47,49.1 Z M47,24.2 L47,26.9 L41.5,24 L41.5,21.3 L47,24.2 Z M39.8,20.4 L39.8,23 L26.4,16 L26.4,13.3 L39.8,20.4 Z M12.2,25.8 L26.4,18 L26.4,18 L39.8,25 L39.8,49 L30.7,49 L30.7,39 L23,39 L23,49.1 L18.7,49.1 L12.2,49.1 L12.2,25.8 Z M39.8,50.8 L39.8,53.1 L30.7,53.1 L30.7,50.8 L39.8,50.8 Z M41.5,53.1 L41.5,50.8 L47,50.8 L47,53.1 L41.5,53.1 Z" id="Shape"></path>
        </g>
    </g>
</svg>