<?xml version="1.0" encoding="UTF-8"?>
<svg width="38px" height="25px" viewBox="0 0 38 25" version="1.1" xmlns="http://www.w3.org/2000/svg" xmlns:xlink="http://www.w3.org/1999/xlink">
    <!-- Generator: Sketch 43.1 (39012) - http://www.bohemiancoding.com/sketch -->
    <title>noun_menu_549980</title>
    <desc>Created with Sketch.</desc>
    <defs></defs>
    <g id="Page-1" stroke="none" stroke-width="1" fill="none" fill-rule="evenodd">
        <g id="noun_menu_549980" transform="translate(19.000000, 12.500000) scale(-1, -1) translate(-19.000000, -12.500000) " fill-rule="nonzero" fill="#000000">
            <path d="M0.895111111,2.18534483 L22.5386444,2.18534483 C23.0330667,2.18534483 23.4341778,1.7762931 23.4341778,1.27155172 C23.4341778,0.76637931 23.0330667,0.357758621 22.5386444,0.357758621 L0.895111111,0.357758621 C0.400688889,0.357758621 0,0.76637931 0,1.27155172 C0,1.7762931 0.400688889,2.18534483 0.895111111,2.18534483 Z" id="Shape"></path>
            <path d="M37.1044667,11.5857759 L0.895111111,11.5857759 C0.400688889,11.5857759 0,11.9948276 0,12.5 C0,13.0047414 0.400688889,13.4137931 0.895111111,13.4137931 L37.1044667,13.4137931 C37.5988889,13.4137931 38,13.0047414 38,12.5 C38,11.9948276 37.5988889,11.5857759 37.1044667,11.5857759 Z" id="Shape"></path>
            <path d="M37.1044667,22.8146552 L0.895111111,22.8146552 C0.400688889,22.8146552 0,23.2237069 0,23.7284483 C0,24.2336207 0.400688889,24.6422414 0.895111111,24.6422414 L37.1044667,24.6422414 C37.5988889,24.6422414 38,24.2336207 38,23.7284483 C38,23.2237069 37.5988889,22.8146552 37.1044667,22.8146552 Z" id="Shape"></path>
        </g>
    </g>
</svg>