<?xml version="1.0" encoding="UTF-8"?>
<svg width="90px" height="58px" viewBox="0 0 90 58" version="1.1" xmlns="http://www.w3.org/2000/svg" xmlns:xlink="http://www.w3.org/1999/xlink">
    <!-- Generator: Sketch 43.1 (39012) - http://www.bohemiancoding.com/sketch -->
    <title>noun_menu_549980</title>
    <desc>Created with Sketch.</desc>
    <defs></defs>
    <g id="Page-1" stroke="none" stroke-width="1" fill="none" fill-rule="evenodd">
        <g id="noun_menu_549980" transform="translate(45.000000, 29.000000) scale(-1, -1) translate(-45.000000, -29.000000) " fill-rule="nonzero" fill="#000000">
            <path d="M2.12,5.07 L53.381,5.07 C54.552,5.07 55.502,4.121 55.502,2.95 C55.502,1.778 54.552,0.83 53.381,0.83 L2.12,0.83 C0.949,0.83 3.55271368e-15,1.778 3.55271368e-15,2.95 C3.55271368e-15,4.121 0.949,5.07 2.12,5.07 Z" id="Shape"></path>
            <path d="M87.879,26.879 L2.12,26.879 C0.949,26.879 0,27.828 0,29 C0,30.171 0.949,31.12 2.12,31.12 L87.879,31.12 C89.05,31.12 90,30.171 90,29 C90,27.828 89.05,26.879 87.879,26.879 Z" id="Shape"></path>
            <path d="M87.879,52.93 L2.12,52.93 C0.949,52.93 0,53.879 0,55.05 C0,56.222 0.949,57.17 2.12,57.17 L87.879,57.17 C89.05,57.17 90,56.222 90,55.05 C90,53.879 89.05,52.93 87.879,52.93 Z" id="Shape"></path>
        </g>
    </g>
</svg>