<?xml version="1.0" encoding="UTF-8"?>
<svg width="74px" height="74px" viewBox="0 0 74 74" version="1.1" xmlns="http://www.w3.org/2000/svg" xmlns:xlink="http://www.w3.org/1999/xlink">
    <!-- Generator: Sketch 43.1 (39012) - http://www.bohemiancoding.com/sketch -->
    <title>noun_menu_1166837</title>
    <desc>Created with Sketch.</desc>
    <defs></defs>
    <g id="Page-1" stroke="none" strokeWidth="1" fill="none" fill-rule="evenodd">
        <g id="noun_menu_1166837" fill-rule="nonzero" fill="#000000">
            <path d="M23.5,42.5 L68.4,42.5 C71.4,42.5 73.9,40 73.9,37 L73.9,37 C73.9,34 71.4,31.5 68.4,31.5 L23.5,31.5 C20.5,31.5 18,34 18,37 L18,37 C18,40 20.4,42.5 23.5,42.5 Z" id="Shape"></path>
            <path d="M42.9,73.9 L68.3,73.9 C71.3,73.9 73.8,71.4 73.8,68.4 L73.8,68.4 C73.8,65.4 71.3,62.9 68.3,62.9 L42.9,62.9 C39.9,62.9 37.4,65.4 37.4,68.4 L37.4,68.4 C37.4,71.5 39.9,73.9 42.9,73.9 Z" id="Shape"></path>
            <path d="M6,11 L68.4,11 C71.4,11 73.9,8.5 73.9,5.5 L73.9,5.5 C73.9,2.5 71.4,0 68.4,0 L6,0 C3,0 0.5,2.5 0.5,5.5 L0.5,5.5 C0.5,8.5 2.9,11 6,11 Z" id="Shape"></path>
        </g>
    </g>
</svg>