<!-- Generator: Adobe Illustrator 20.1.0, SVG Export Plug-In  -->
<svg version="1.1"
	 xmlns="http://www.w3.org/2000/svg" xmlns:xlink="http://www.w3.org/1999/xlink" xmlns:a="http://ns.adobe.com/AdobeSVGViewerExtensions/3.0/"
	 x="0px" y="0px" width="631.1px" height="301.5px" viewBox="0 0 631.1 301.5" style="enable-background:new 0 0 631.1 301.5;"
	 xml:space="preserve">
<style type="text/css">
	.st0{fill:#FFFFFF;stroke:#000000;stroke-miterlimit:10;}
</style>
<defs>
</defs>
<path class="st0" d="M128.7,144.7H81.8V94.2H48.5v50.5H1.6V7.9h46.9v48.4h33.3V7.9h46.9V144.7z"/>
<path class="st0" d="M163.3,7.9h46.5v136.8h-46.5V7.9z"/>
<path class="st0" d="M370.8,86.9c0,9.9-3.4,20.6-10.1,31.7c-6.7,11.2-15.7,19.6-26.7,24.8c-10.8,5.1-22,7.7-33.1,7.7
	c-20.2,0-37.5-7.4-51.4-22.1c-13.8-14.6-20.9-32.8-20.9-54.2c0-20.4,7.2-38,21.5-52.5s31.7-21.8,51.8-21.8
	c25.7,0,45.8,11.4,59.6,33.9l1.4,2.3l-25.1,23.5l-2.1-3.6c-3.9-6.7-8.7-11.8-14.4-15c-5.6-3.3-11.6-4.9-17.7-4.9
	c-10.1,0-18.6,3.7-26.1,11.5c-7.5,7.7-11.2,16.6-11.2,27.1c0,11.2,3.7,20.5,11.2,28.2s16.2,11.5,26.8,11.5c5.6,0,11.1-1.4,16.3-4.3
	c4-2.2,7.4-6,10.2-11.3h-31.3v-34h71.3V86.9z"/>
<path class="st0" d="M514.1,144.7h-46.9V94.2h-33.3v50.5H387V7.9h46.9v48.4h33.3V7.9h46.9V144.7z"/>
<path class="st0" d="M75.7,160.7H0.5v136.8h46.7v-42.8H73c17,0,48.6-4.1,48.6-48.1C121.6,179.8,105.9,160.7,75.7,160.7z M56.4,222.1
	h-9.2v-28.5h10.1c7.5,0,15.7,3.5,15.6,14.5C72.9,220.4,62.3,222.1,56.4,222.1z"/>
<g>
	<path class="st0" d="M203.7,157.1c-34.2,0-72.7,21.2-72.7,72.5c0,44.4,30.1,71.4,73.9,71.4c38.2,0,72.9-22.8,72.9-73.5
		C277.8,187.5,250,157.1,203.7,157.1z M203.9,257.2c-15.5,0-23.9-10.2-23.9-27.6c0-16.8,7.1-28.7,24.7-28.7
		c16.4,0,24.5,10.7,24.5,27.2C229.2,248.2,220.7,257.2,203.9,257.2z"/>
</g>
<path class="st0" d="M295.2,160.7h46.5v136.8h-46.5V160.7z"/>
<path class="st0" d="M459.6,160.7h46.5v136.8h-47.3l-38.5-67.2h-0.5v67.2h-46.9V160.7h48l38.3,67.2h0.4V160.7z"/>
<path class="st0" d="M630.6,160.7v39h-0.1h-27.6v97.8h-46.5v-97.8h-27.6v-39H630.6z"/>
</svg>
