<svg id="Layer_1" data-name="Layer 1" xmlns="http://www.w3.org/2000/svg" viewBox="0 0 973.09 280.48">
  <defs>
    <style>
      .cls-1 {
        fill: #fff;
      }
    </style>
  </defs>
  <title>Highpoint_ [Converted]</title>
  <g>
    <path class="cls-1" d="M857.89,272q0,81.27,0,162.54h24.66V272H857.89Zm74.31,0V434.5h23.22c0.05-36.14-.11-72.27.08-108.4,11.2,36,21.71,72.28,32.64,108.39q12.08,0,24.17,0,0-81.27,0-162.55H989.08c-0.08,32.42.16,64.85-.12,97.27-10.08-32.32-19.51-64.86-29.32-97.27H932.2Zm118.88,0v23.21h26.25V434.5H1102q0-69.66,0-139.33h26.16c0-7.74,0-15.48,0-23.22h-77.08ZM363.51,285.48c-6.31,7.43-8.54,17.45-8.56,27q0,44.53,0,89.08c0,8.44,1.59,17.17,6.29,24.33a32,32,0,0,0,18.82,13.26,53.35,53.35,0,0,0,26.42.05,32.28,32.28,0,0,0,20.8-15.93c4.47-8.15,5.07-17.68,4.77-26.78q0-24,0-47.9H393.94q0,11.39,0,22.76h13.95q0,14.07,0,28.13c-0.09,5-.59,10.45-3.88,14.45-4.08,4.72-11.41,4.94-16.87,2.83-5.51-2.31-7.5-8.71-7.51-14.22-0.07-29.36,0-58.71,0-88.06,0-3.57.16-7.26,1.62-10.58,4-10,21-10.26,25.15-.26,2.89,6.71,1.8,14.2,2,21.3,7.88-.37,15.76-0.77,23.64-1.15-0.11-8.14.65-16.45-1.54-24.39-2-8.05-6.91-15.5-14-19.9-8.58-5.39-19.14-6.52-29-5.61C378.45,274.75,369.39,278.43,363.51,285.48ZM751,275.22a34.24,34.24,0,0,0-22.84,19.09c-4.14,8.72-4.2,18.56-4,28l7.25-3.17c0,26.13,0,52.25,0,78.37,0.15,11.42,4.17,23.42,13.25,30.81,8.76,7.27,20.75,9.31,31.83,8.22,9.15-.82,18.27-4.58,24.46-11.53,7-7.69,9.76-18.32,9.84-28.51q0-43,0-86A47.89,47.89,0,0,0,805.09,287c-2.56,1.11-5.12,2.21-7.67,3.33a34.25,34.25,0,0,0-16.89-13.81A50.15,50.15,0,0,0,751,275.22Zm-595.9.73V438.5h24.59V367.67h29.22V438.5h24.66V276H208.89v68.5H179.67V276H155.08Zm128.12,0V438.5h24.66q0-81.27,0-162.55H283.2Zm195.3,0V429.65l7.25-3.16c0,2.66,0,5.33,0,8q12.3,0,24.61,0,0-9.39,0-18.77c-2.42,1-4.84,2.1-7.25,3.17V367.67h29.22v38.45l7.25-3.16V434.5h24.67q0-21.15,0-42.31L557,395.34V276H532.33v68.49H503.11V276H478.5Zm129.25,0q0,48.62,0,97.23L615,370q0,32.25,0,64.5h24.67q0-33.67,0-67.33c11.52,0.06,23.81.68,34.19-5.21,9.32-4.93,15-14.8,16.72-25-2.37,1-4.73,2-7.07,3.09a92.31,92.31,0,0,0,.74-12.55c0-8.89.49-18-2.19-26.62a32.77,32.77,0,0,0-14.13-19c-7.87-4.83-17.35-6.14-26.44-6H607.75ZM407.88,507.08a21.18,21.18,0,0,0-14.67,13.13c-2.61,7.25-2.17,15.85,2.07,22.41,7.2,11.15,24.11,12.68,34.37,5,11.37-8.49,11.5-27.91.42-36.68C423.89,506.08,415.34,505.24,407.88,507.08Zm323.81,2.66c-9.53,5.79-12.27,18.86-8.47,28.86A21.34,21.34,0,0,0,739,551.8a38.35,38.35,0,0,0,24-3.66c0-7.52,0-15,0-22.56H746.14q0,3.54,0,7.09h9c0,3.48,0,7,0,10.45-5.64,2.48-12.67,3.31-18.15,0-8.9-5.51-9.67-20.08-1.55-26.62,6-4.87,15.28-3.93,21,1,2-1.93,3.89-3.88,5.78-5.87C753.74,505,740.93,504.34,731.69,509.74ZM844,507.22a21.12,21.12,0,0,0-14.32,13.34c-2.82,8.18-1.76,18.15,4.24,24.68,9.91,10.86,30.26,9.17,37.74-3.68,5.21-9.16,4.13-22.08-3.65-29.48C861.7,506.14,852.11,505,844,507.22Zm-545.5.11q0,22,0,44c2.61,0,5.23,0,7.85,0V533.11c5.63-.09,11.57.49,16.86-1.86,8.87-3.9,8.41-19.19-.85-22.39C314.73,506.14,306.43,507.78,298.5,507.33Zm46.89,0q0,22,0,44h7.86V532.66l5.69,0c3.35,6.22,6.78,12.4,10.14,18.61h9.51c-3.87-6.44-7.71-12.9-11.63-19.31,2.18-.65,4.49-1.23,6.22-2.8,4.28-3.64,4.88-10.31,2.62-15.21-2.26-4.53-7.6-6.23-12.32-6.53C357.46,507.17,351.42,507.4,345.39,507.33Zm110.11,0q0,22,0,44h7.85V533.11c5.63-.09,11.58.49,16.87-1.86,8.88-3.92,8.39-19.28-.93-22.41C471.67,506.15,463.41,507.77,455.5,507.33Zm46.9,0q0,22,0,44h30.22c0-2.39,0-4.78,0-7.15H510.25V532.3h20.17q0-3.56,0-7.1H510.25c0-3.59,0-7.18,0-10.77h21.3c0-2.37,0-4.73,0-7.09H502.4Zm47.75,0q0,22,0,44H558V532.67h5.64q5.08,9.32,10.18,18.63h9.5c-3.88-6.44-7.71-12.91-11.63-19.31a19.09,19.09,0,0,0,5.22-2c7.2-4.74,6.49-17.8-1.87-20.94C567.11,506,558.41,507.82,550.15,507.33Zm45.18,7.09h13.42V551.3h7.86q0-18.45,0-36.88h13.45q0-3.54,0-7.08H595.33v7.09Zm46.8-7.08c5.42,8.42,11.15,16.65,16.4,25.17,0.28,6.25,0,12.53.11,18.79h7.85c0.1-6.25-.16-12.51.12-18.74,5.25-8.54,11-16.79,16.41-25.22-3.12,0-6.24,0-9.36,0q-5.45,8.71-10.89,17.45c-3.6-5.82-7.18-11.65-10.79-17.46Zm139.87,0v44h7.86c0-6.21,0-12.42,0-18.63h5.66q5.1,9.32,10.2,18.63h9.49c-3.88-6.44-7.73-12.9-11.64-19.32,2.05-.63,4.25-1.13,5.94-2.56,4.4-3.47,5.16-10.08,3.09-15-2-4.64-7.32-6.54-12-6.9C794.38,507.13,788.19,507.42,782,507.33Zm109.75,0c0,9.39,0,18.78,0,28.17a16.46,16.46,0,0,0,7.55,14.16,19.86,19.86,0,0,0,21.45-.8,16.61,16.61,0,0,0,6.38-13.36c0.05-9.39,0-18.78,0-28.17h-7.83c-0.06,9.43.1,18.86-.07,28.29a9.81,9.81,0,0,1-19.6,0c-0.14-9.42,0-18.83,0-28.25h-7.86Zm54.75,0q0,22,0,44h7.85q0-9.1,0-18.19c5.62-.09,11.55.49,16.84-1.85,8.88-3.89,8.42-19.22-.85-22.4C962.71,506.14,954.42,507.78,946.5,507.33Z" transform="translate(-155.08 -271.94)"/>
    <path class="cls-1" d="M755.63,298.52c5.77-3.38,13.82-2.82,18.79,1.81q3.87-1.63,7.69-3.4c3.27,4.07,4.09,9.45,4,14.52,0,28.35,0,56.69,0,85-0.07,6-2,13-7.71,15.91-6,2.86-14.34,2.19-18.65-3.29-3.2-4.09-3.8-9.52-3.78-14.54,0-28.74-.07-57.47.06-86.2q-3.6,1.61-7.23,3.12C749.46,306.59,751.16,301.23,755.63,298.52Z" transform="translate(-155.08 -271.94)"/>
    <path class="cls-1" d="M632.42,298.75c7.36,0.38,16-1.61,22.05,3.85,5.78,5.69,5.06,14.49,5.12,21.93,0,7,.16,15.41-5.63,20.42-6.08,4.87-14.36,3.1-21.54,3.44V298.75Z" transform="translate(-155.08 -271.94)"/>
    <path class="cls-1" d="M409.9,514.1c6.4-2.21,14.31.19,17.76,6.19,4.58,7.6,2.41,19.27-5.85,23.41-6.11,3.06-14.44,1.66-18.59-4C396.91,531.66,399.52,517.33,409.9,514.1Z" transform="translate(-155.08 -271.94)"/>
    <path class="cls-1" d="M789.86,514.05c4.26,0.21,8.8-.67,12.84,1.07s3.58,8.68-.62,10c-3.94,1.28-8.16.66-12.22,0.81Q789.85,520,789.86,514.05Z" transform="translate(-155.08 -271.94)"/>
    <path class="cls-1" d="M846,514.28c6.38-2.44,14.41-.26,18.06,5.67,4.52,7.15,3,18-4.14,22.88-5.92,3.94-14.78,3.13-19.47-2.36C833.52,532.7,835.64,518,846,514.28Z" transform="translate(-155.08 -271.94)"/>
    <path class="cls-1" d="M306.36,514.06c4.06,0.14,8.41-.59,12.2,1.24s3.63,8.34-.28,10-8,1-11.92,1.08V514.06Z" transform="translate(-155.08 -271.94)"/>
    <path class="cls-1" d="M353.25,514.06c4.23,0.18,8.71-.63,12.75,1,4.11,1.78,3.71,8.79-.59,10.11-3.93,1.23-8.11.65-12.16,0.77V514.06Z" transform="translate(-155.08 -271.94)"/>
    <path class="cls-1" d="M463.36,514.06c4.07,0.14,8.45-.6,12.24,1.27s3.56,8.31-.32,10-7.95,1-11.92,1.08V514.06Z" transform="translate(-155.08 -271.94)"/>
    <path class="cls-1" d="M558,514.06c4.11,0.15,8.39-.54,12.36.84,4.47,1.52,4.24,9-.3,10.29-3.9,1.2-8,.63-12.06.75Q558,520,558,514.06Z" transform="translate(-155.08 -271.94)"/>
    <path class="cls-1" d="M954.36,514.06c4.06,0.15,8.45-.61,12.23,1.28s3.56,8.28-.3,9.95-8,1-11.93,1.1Q954.35,520.22,954.36,514.06Z" transform="translate(-155.08 -271.94)"/>
  </g>
  <g>
    <path d="M857.89,272h24.66V434.5H857.89Q857.91,353.22,857.89,272Z" transform="translate(-155.08 -271.94)"/>
    <path d="M932.2,272h27.44c9.81,32.41,19.24,64.95,29.32,97.27,0.28-32.42,0-64.85.12-97.27h23.21q0,81.29,0,162.55-12.09,0-24.17,0c-10.93-36.11-21.44-72.37-32.64-108.39-0.19,36.13,0,72.26-.08,108.4H932.2V272Z" transform="translate(-155.08 -271.94)"/>
    <path d="M1051.08,272h77.08c0,7.74,0,15.48,0,23.22H1102q0,69.66,0,139.33h-24.67V295.17h-26.25V272Z" transform="translate(-155.08 -271.94)"/>
    <path d="M363.51,285.48c5.88-7.05,14.94-10.73,23.92-11.58,9.9-.91,20.46.22,29,5.61,7.12,4.4,12,11.85,14,19.9,2.19,7.94,1.43,16.25,1.54,24.39-7.88.38-15.76,0.78-23.64,1.15-0.24-7.1.85-14.59-2-21.3-4.15-10-21.15-9.72-25.15.26-1.46,3.32-1.63,7-1.62,10.58,0.05,29.35,0,58.7,0,88.06,0,5.51,2,11.91,7.51,14.22,5.46,2.11,12.79,1.89,16.87-2.83,3.29-4,3.79-9.46,3.88-14.45q0-14.06,0-28.13H393.94q0-11.39,0-22.76h38.12q0,24,0,47.9c0.3,9.1-.3,18.63-4.77,26.78a32.28,32.28,0,0,1-20.8,15.93,53.35,53.35,0,0,1-26.42-.05,32,32,0,0,1-18.82-13.26c-4.7-7.16-6.29-15.89-6.29-24.33q0-44.54,0-89.08C355,302.93,357.2,292.91,363.51,285.48Z" transform="translate(-155.08 -271.94)"/>
    <path d="M751,275.22a50.15,50.15,0,0,1,29.55,1.26,34.25,34.25,0,0,1,16.89,13.81c2.55-1.12,5.11-2.22,7.67-3.33a47.89,47.89,0,0,1,5.71,23.55q0,43,0,86c-0.08,10.19-2.86,20.82-9.84,28.51-6.19,6.95-15.31,10.71-24.46,11.53-11.08,1.09-23.07-1-31.83-8.22-9.08-7.39-13.1-19.39-13.25-30.81,0-26.12,0-52.24,0-78.37l-7.25,3.17c-0.2-9.44-.14-19.28,4-28A34.24,34.24,0,0,1,751,275.22Zm4.65,23.3c-4.47,2.71-6.17,8.07-6.81,13q3.63-1.51,7.23-3.12c-0.13,28.73,0,57.46-.06,86.2,0,5,.58,10.45,3.78,14.54,4.31,5.48,12.66,6.15,18.65,3.29,5.76-2.95,7.64-9.91,7.71-15.91,0-28.34,0-56.68,0-85,0.05-5.07-.77-10.45-4-14.52q-3.83,1.77-7.69,3.4C769.45,295.7,761.4,295.14,755.63,298.52Z" transform="translate(-155.08 -271.94)"/>
    <path d="M155.08,276h24.59v68.49h29.22V276h24.66V438.5H208.89V367.67H179.67V438.5H155.08V276Z" transform="translate(-155.08 -271.94)"/>
    <path d="M283.2,276h24.66q0,81.27,0,162.55H283.2V276Z" transform="translate(-155.08 -271.94)"/>
    <path d="M478.5,275.94h24.61v68.5h29.22V276H557V395.34l7.25-3.16q0,21.17,0,42.31H539.58V403l-7.25,3.16V367.67H503.11V418.9c2.41-1.07,4.83-2.12,7.25-3.17q0,9.38,0,18.77-12.3,0-24.61,0c0-2.67,0-5.34,0-8l-7.25,3.16V275.94Z" transform="translate(-155.08 -271.94)"/>
    <path d="M607.75,275.94h33.74c9.09-.18,18.57,1.13,26.44,6a32.77,32.77,0,0,1,14.13,19c2.68,8.61,2.14,17.73,2.19,26.62a92.31,92.31,0,0,1-.74,12.55c2.34-1.05,4.7-2.07,7.07-3.09-1.71,10.17-7.4,20-16.72,25-10.38,5.89-22.67,5.27-34.19,5.21q0,33.66,0,67.33H615q0-32.25,0-64.5l-7.24,3.17Q607.73,324.55,607.75,275.94Zm24.67,22.81v49.64c7.18-.34,15.46,1.43,21.54-3.44,5.79-5,5.65-13.41,5.63-20.42-0.06-7.44.66-16.24-5.12-21.93C648.46,297.14,639.78,299.13,632.42,298.75Z" transform="translate(-155.08 -271.94)"/>
    <path d="M407.88,507.08c7.46-1.84,16-1,22.19,3.86,11.08,8.77,10.95,28.19-.42,36.68-10.26,7.68-27.17,6.15-34.37-5-4.24-6.56-4.68-15.16-2.07-22.41A21.18,21.18,0,0,1,407.88,507.08Zm2,7c-10.38,3.23-13,17.56-6.68,25.63,4.15,5.63,12.48,7,18.59,4,8.26-4.14,10.43-15.81,5.85-23.41C424.21,514.29,416.3,511.89,409.9,514.1Z" transform="translate(-155.08 -271.94)"/>
    <path d="M731.69,509.74c9.24-5.4,22-4.76,30.51,1.92-1.89,2-3.83,3.94-5.78,5.87-5.7-4.94-15-5.88-21-1-8.12,6.54-7.35,21.11,1.55,26.62,5.48,3.29,12.51,2.46,18.15,0,0-3.49,0-7,0-10.45h-9q0-3.55,0-7.09H763c0,7.52,0,15,0,22.56a38.35,38.35,0,0,1-24,3.66,21.34,21.34,0,0,1-15.79-13.2C719.42,528.6,722.16,515.53,731.69,509.74Z" transform="translate(-155.08 -271.94)"/>
    <path d="M844,507.22c8.11-2.2,17.7-1.08,24,4.86,7.78,7.4,8.86,20.32,3.65,29.48-7.48,12.85-27.83,14.54-37.74,3.68-6-6.53-7.06-16.5-4.24-24.68A21.12,21.12,0,0,1,844,507.22Zm2,7.06c-10.35,3.67-12.47,18.42-5.55,26.19,4.69,5.49,13.55,6.3,19.47,2.36,7.18-4.88,8.66-15.73,4.14-22.88C860.4,514,852.37,511.84,846,514.28Z" transform="translate(-155.08 -271.94)"/>
    <path d="M298.5,507.33c7.93,0.45,16.23-1.19,23.87,1.53,9.26,3.2,9.72,18.49.85,22.39-5.29,2.35-11.23,1.77-16.86,1.86V551.3c-2.62,0-5.24,0-7.85,0Q298.48,529.32,298.5,507.33Zm7.86,6.73v12.33c4-.12,8.15.46,11.92-1.08s4.06-8.1.28-10S310.42,514.2,306.36,514.06Z" transform="translate(-155.08 -271.94)"/>
    <path d="M345.39,507.33c6,0.07,12.07-.16,18.09.12,4.72,0.3,10.06,2,12.32,6.53,2.26,4.9,1.66,11.57-2.62,15.21-1.73,1.57-4,2.15-6.22,2.8,3.92,6.41,7.76,12.87,11.63,19.31h-9.51c-3.36-6.21-6.79-12.39-10.14-18.61l-5.69,0V551.3h-7.86Q345.39,529.31,345.39,507.33Zm7.86,6.73v11.88c4.05-.12,8.23.46,12.16-0.77,4.3-1.32,4.7-8.33.59-10.11C362,513.43,357.48,514.24,353.25,514.06Z" transform="translate(-155.08 -271.94)"/>
    <path d="M455.5,507.33c7.91,0.44,16.17-1.18,23.8,1.51,9.32,3.13,9.81,18.49.93,22.41-5.29,2.35-11.24,1.77-16.87,1.86V551.3h-7.85Q455.48,529.33,455.5,507.33Zm7.86,6.73v12.33c4-.11,8.15.45,11.92-1.08s4.05-8.06.32-10S467.43,514.2,463.36,514.06Z" transform="translate(-155.08 -271.94)"/>
    <path d="M502.4,507.33h29.15c0,2.36,0,4.72,0,7.09h-21.3c0,3.59,0,7.18,0,10.77h20.17q0,3.54,0,7.1H510.25v11.84H532.6c0,2.37,0,4.76,0,7.15H502.39Q502.39,529.31,502.4,507.33Z" transform="translate(-155.08 -271.94)"/>
    <path d="M550.15,507.33c8.26,0.49,17-1.3,24.89,1.68,8.36,3.14,9.07,16.2,1.87,20.94a19.09,19.09,0,0,1-5.22,2c3.92,6.4,7.75,12.87,11.63,19.31h-9.5q-5.09-9.33-10.18-18.63H558V551.3h-7.86Q550.14,529.31,550.15,507.33Zm7.85,6.73q0,5.94,0,11.88c4-.12,8.16.45,12.06-0.75,4.54-1.3,4.77-8.77.3-10.29C566.39,513.52,562.11,514.21,558,514.06Z" transform="translate(-155.08 -271.94)"/>
    <path d="M595.33,514.42v-7.09H630q0,3.54,0,7.08H616.61q0,18.44,0,36.88h-7.86V514.42H595.33Z" transform="translate(-155.08 -271.94)"/>
    <path d="M642.13,507.34l9.85,0c3.61,5.81,7.19,11.64,10.79,17.46q5.46-8.73,10.89-17.45c3.12,0,6.24,0,9.36,0-5.42,8.43-11.16,16.68-16.41,25.22-0.28,6.23,0,12.49-.12,18.74h-7.85c-0.09-6.26.17-12.54-.11-18.79C653.28,524,647.55,515.76,642.13,507.34Z" transform="translate(-155.08 -271.94)"/>
    <path d="M782,507.33c6.19,0.09,12.38-.2,18.56.16,4.71,0.36,10,2.26,12,6.9,2.07,5,1.31,11.56-3.09,15-1.69,1.43-3.89,1.93-5.94,2.56,3.91,6.42,7.76,12.88,11.64,19.32h-9.49q-5.12-9.3-10.2-18.63h-5.66c0,6.21,0,12.42,0,18.63H782v-44Zm7.86,6.72q0,5.94,0,11.9c4.06-.15,8.28.47,12.22-0.81,4.2-1.34,4.62-8.19.62-10S794.12,514.26,789.86,514.05Z" transform="translate(-155.08 -271.94)"/>
    <path d="M891.75,507.33h7.86c0,9.42-.09,18.83,0,28.25a9.81,9.81,0,0,0,19.6,0c0.17-9.43,0-18.86.07-28.29h7.83c0,9.39,0,18.78,0,28.17a16.61,16.61,0,0,1-6.38,13.36,19.86,19.86,0,0,1-21.45.8,16.46,16.46,0,0,1-7.55-14.16C891.72,526.11,891.77,516.72,891.75,507.33Z" transform="translate(-155.08 -271.94)"/>
    <path d="M946.5,507.33c7.92,0.45,16.21-1.19,23.85,1.53,9.27,3.18,9.73,18.51.85,22.4-5.29,2.34-11.22,1.76-16.84,1.85q0,9.09,0,18.19h-7.85Q946.48,529.33,946.5,507.33Zm7.86,6.73q0,6.16,0,12.33c4-.12,8.16.47,11.93-1.1s4-8,.3-9.95S958.42,514.21,954.36,514.06Z" transform="translate(-155.08 -271.94)"/>
  </g>
</svg>
