<?xml version="1.0" encoding="utf-8"?>
<!-- Generator: Adobe Illustrator 19.2.1, SVG Export Plug-In . SVG Version: 6.00 Build 0)  -->
<svg version="1.1" id="Layer_1" xmlns="http://www.w3.org/2000/svg" xmlns:xlink="http://www.w3.org/1999/xlink" x="0px" y="0px"
	 viewBox="0 0 1224 792" style="enable-background:new 0 0 1224 792;" xml:space="preserve">
<g>
	<path d="M879.8,309.8v-75.5c0-2.3,0-2.1-2.3-2.1h-48.6c-2.1,0-2.3,0.2-2.3,2.1v49.3h-42v-49.3c0-1.8-0.2-2.1-2.3-2.1h-48.6
		c-2.3,0-2.3-0.2-2.3,2.1v75.5v75c0,2.3,0,2.1,2.3,2.1h48.6c2.1,0,2.3-0.2,2.3-2.1v-52.7h42v52.7c0,1.8,0.2,2.1,2.3,2.1h48.6
		c2.3,0,2.3,0.2,2.3-2.1V309.8z M643.1,322.8c-4.3,11.9-13.5,17.8-26.7,17.8c-19.6,0-31.2-10.9-31.2-30.6
		c0-17.6,11.6-30.1,30.3-30.1c10.5,0,21.7,4.8,26.9,14.8c0.7,1.8,1.8,3,3.6,2.3l42.6-18.9c1.8-0.9,1.6-1.6,0.7-4.1
		c-10.9-26.9-34.9-46.3-73.7-46.3c-48.8,0-84.2,34-84.2,81.6c0,51.8,36.9,82.8,82.8,82.8c23.7,0,36.3-8.9,47-16.9L688,390
		c0.7,0.2,1.6,0.7,2.5,0.7c2.1,0,2.1-0.9,2.1-0.9v-67.7c0-1.4,0-1.6-1.8-1.6h-45.8C644,320.5,643.8,321.2,643.1,322.8 M498.3,234.3
		c0-1.8-0.2-2.1-2.3-2.1h-50.4c-2.3,0-2.3-0.2-2.3,2.1v75.5v75c0,2.3,0,2.1,2.3,2.1H496c2.1,0,2.3-0.2,2.3-2.1v-75V234.3z
		 M392.2,309.8v-75.5c0-2.3,0-2.1-2.3-2.1h-48.6c-2.1,0-2.3,0.2-2.3,2.1v49.3h-42v-49.3c0-1.8-0.2-2.1-2.3-2.1h-48.6
		c-2.3,0-2.3-0.2-2.3,2.1v75.5v75c0,2.3,0,2.1,2.3,2.1h48.6c2.1,0,2.3-0.2,2.3-2.1v-52.7h42v52.7c0,1.8,0.2,2.1,2.3,2.1H390
		c2.3,0,2.3,0.2,2.3-2.1V309.8z"/>
	<path d="M938.4,444l40.1,2.5c1.4,0,1.6-0.2,1.6-1.6v-38.8c0-1.8-0.2-2.3-1.8-2.3H843.1c-1.8,0-1.8,0.5-1.8,2.3V445
		c0,1.4,0,1.6,1.6,1.6l41.5-2.5v112.4c0,2.3,0,2.1,2.3,2.1h49.5c2.1,0,2.3-0.2,2.3-2.1V444z M674.8,556.2c0,0.9,0.5,2.3,2.5,2.3
		h43.1c2.3,0,2.3,0,2.3-2.1v-57.9c0,0,57.9,39.7,96.7,63.4c3.2,1.8,3,0.5,3-2.3c0.7-59.3,0.5-108.6,0-153c0-2.3,0-2.7-2.5-2.7h-43.6
		c-2.3,0-2.1,0.2-2.1,2.7v57.7c0,0-60.9-41.5-96.9-64.1c-1.6-1.1-2.5-1.1-2.5,1.4C674.3,462.1,674.1,496,674.8,556.2 M642.2,406
		c0-1.8-0.2-2.1-2.3-2.1h-50.4c-2.3,0-2.3-0.2-2.3,2.1v75.5v75c0,2.3,0,2.1,2.3,2.1h50.4c2.1,0,2.3-0.2,2.3-2.1v-75V406z
		 M481.2,452.7c17.6,0,29,10.9,29,28.5c0,18.5-12.5,29.9-29,29.9c-17.1,0-29-10.9-29-29.9C452.2,464.6,463.4,452.7,481.2,452.7
		 M481.2,399.1c-45.6,0-83.7,33.3-83.7,82.3c0,46.5,34.9,82.6,83.7,82.6c44.2,0,83.7-34,83.7-82.3
		C564.9,430.8,524.7,399.1,481.2,399.1 M307.6,444c14.8,0,20.5,8,20.5,18.9c0,10.3-5.7,18.7-20.1,18.7h-10.9V444H307.6z
		 M325.2,520.9c35.1-3.6,56.8-20.3,56.8-57.7c0-35.1-23.5-59.3-59.7-59.3h-75.9c-1.1,0-2.3-0.2-2.3,2.1v75.5v75c0,2.3,0,2.1,2.3,2.1
		h48.6c2.1,0,2.3-0.2,2.3-2.1v-34.7C297.1,521.8,317.9,521.6,325.2,520.9"/>
</g>
</svg>
