<?xml version="1.0" encoding="utf-8"?>
<!-- Generator: Adobe Illustrator 19.2.1, SVG Export Plug-In . SVG Version: 6.00 Build 0)  -->
<svg version="1.1" id="Layer_1" xmlns="http://www.w3.org/2000/svg" xmlns:xlink="http://www.w3.org/1999/xlink" x="0px" y="0px"
	 viewBox="0 0 1224 792" style="enable-background:new 0 0 1224 792;" xml:space="preserve">
<g>
	<path d="M1097.8,366.4l31,1.9c1.1,0,1.2-0.2,1.2-1.2v-29.9c0-1.4-0.2-1.8-1.4-1.8h-104.4c-1.4,0-1.4,0.4-1.4,1.8v29.9
		c0,1.1,0,1.2,1.2,1.2l32-1.9v86.8c0,1.8,0,1.6,1.8,1.6h38.2c1.6,0,1.8-0.2,1.8-1.6V366.4z M894.3,453c0,0.7,0.4,1.8,1.9,1.8h33.3
		c1.8,0,1.8,0,1.8-1.6v-44.7c0,0,44.7,30.6,74.7,49c2.5,1.4,2.3,0.4,2.3-1.8c0.5-45.8,0.4-83.8,0-118.2c0-1.8,0-2.1-1.9-2.1h-33.6
		c-1.8,0-1.6,0.2-1.6,2.1v44.5c0,0-47-32-74.8-49.5c-1.2-0.9-1.9-0.9-1.9,1.1C893.9,380.3,893.8,406.5,894.3,453 M869.1,337
		c0-1.4-0.2-1.6-1.8-1.6h-38.9c-1.8,0-1.8-0.2-1.8,1.6v58.3v57.9c0,1.8,0,1.6,1.8,1.6h38.9c1.6,0,1.8-0.2,1.8-1.6v-57.9V337z
		 M750.1,373.1c13.6,0,22.4,8.5,22.4,22c0,14.3-9.7,23.1-22.4,23.1c-13.2,0-22.4-8.5-22.4-23.1C727.7,382.2,736.3,373.1,750.1,373.1
		 M750.1,331.7c-35.2,0-64.6,25.7-64.6,63.6c0,35.9,26.9,63.7,64.6,63.7c34.2,0,64.6-26.2,64.6-63.6
		C814.7,356.2,783.7,331.7,750.1,331.7 M621.4,366.4c11.4,0,15.8,6.2,15.8,14.6c0,7.9-4.4,14.4-15.5,14.4h-8.5v-29.1H621.4z
		 M634.9,425.7c27.1-2.8,43.8-15.7,43.8-44.5c0-27.1-18.1-45.8-46.1-45.8H574c-0.9,0-1.8-0.2-1.8,1.6v58.3v57.9c0,1.8,0,1.6,1.8,1.6
		h37.5c1.6,0,1.8-0.2,1.8-1.6v-26.8C613.3,426.4,629.3,426.2,634.9,425.7 M547.9,395.3V337c0-1.8,0-1.6-1.8-1.6h-37.5
		c-1.6,0-1.8,0.2-1.8,1.6v38h-32.4v-38c0-1.4-0.2-1.6-1.8-1.6h-37.5c-1.8,0-1.8-0.2-1.8,1.6v58.3v57.9c0,1.8,0,1.6,1.8,1.6h37.5
		c1.6,0,1.8-0.2,1.8-1.6v-40.7h32.4v40.7c0,1.4,0.2,1.6,1.8,1.6h37.5c1.8,0,1.8,0.2,1.8-1.6V395.3z M377.5,405.3
		c-3.3,9.2-10.4,13.7-20.6,13.7c-15.1,0-24.1-8.5-24.1-23.6c0-13.6,9-23.2,23.4-23.2c8.1,0,16.7,3.7,20.8,11.4
		c0.5,1.4,1.4,2.3,2.8,1.8l32.9-14.6c1.4-0.7,1.2-1.2,0.5-3.2c-8.5-20.8-26.9-35.7-56.9-35.7c-37.7,0-65,26.2-65,63
		c0,40,28.5,63.9,63.9,63.9c18.3,0,28-6.9,36.3-13l20.6,11.4c0.5,0.2,1.2,0.5,1.9,0.5c1.6,0,1.6-0.7,1.6-0.7v-52.3
		c0-1.1,0-1.2-1.4-1.2h-35.4C378.2,403.5,378,404.1,377.5,405.3 M278,337c0-1.4-0.2-1.6-1.8-1.6h-38.9c-1.8,0-1.8-0.2-1.8,1.6v58.3
		v57.9c0,1.8,0,1.6,1.8,1.6h38.9c1.6,0,1.8-0.2,1.8-1.6v-57.9V337z M208.5,395.3V337c0-1.8,0-1.6-1.8-1.6h-37.5
		c-1.6,0-1.8,0.2-1.8,1.6v38H135v-38c0-1.4-0.2-1.6-1.8-1.6H95.8c-1.8,0-1.8-0.2-1.8,1.6v58.3v57.9c0,1.8,0,1.6,1.8,1.6h37.5
		c1.6,0,1.8-0.2,1.8-1.6v-40.7h32.4v40.7c0,1.4,0.2,1.6,1.8,1.6h37.5c1.8,0,1.8,0.2,1.8-1.6V395.3z"/>
</g>
</svg>
