<?xml version="1.0" encoding="utf-8"?>
<!-- Generator: Adobe Illustrator 22.0.1, SVG Export Plug-In . SVG Version: 6.00 Build 0)  -->
<svg version="1.1" id="Layer_1" xmlns="http://www.w3.org/2000/svg" xmlns:xlink="http://www.w3.org/1999/xlink" x="0px" y="0px"
	 viewBox="0 0 1736 600" style="enable-background:new 0 0 1736 600;" xml:space="preserve">
<style type="text/css">
	.st0{fill:#FFFFFF;}
</style>
<g>
	<path class="st0" d="M561.5,333.1h-10.1v28.5h9.2c5.9,0,16.5-1.7,16.5-14C577.2,336.6,569,333.1,561.5,333.1z"/>
	<path class="st0" d="M708.9,340.4c-17.6,0-24.7,11.9-24.7,28.7c0,17.4,8.4,27.6,23.9,27.6c16.8,0,25.3-9,25.3-29.1
		C733.4,351.1,725.3,340.4,708.9,340.4z"/>
	<path class="st0" d="M0,0v600h1736V0H0z M667.5,147.4H714v136.8h-46.5V147.4z M577.2,394.2h-25.8V437h-46.7V300.2h75.2
		c30.2,0,45.9,19.1,45.9,45.9C625.8,390.1,594.2,394.2,577.2,394.2z M632.9,284.2H586v-50.5h-33.3v50.5h-46.9V147.4h46.9v48.4H586
		v-48.4h46.9V284.2z M709.1,440.5c-43.8,0-73.9-27-73.9-71.4c0-51.3,38.5-72.5,72.7-72.5c46.3,0,74.1,30.4,74.1,70.4
		C782,417.7,747.3,440.5,709.1,440.5z M845.9,437h-46.5V300.2h46.5V437z M875,226.4c0,9.9-3.4,20.6-10.1,31.7
		c-6.7,11.2-15.7,19.6-26.7,24.8c-10.8,5.1-22,7.7-33.1,7.7c-20.2,0-37.5-7.4-51.4-22.1c-13.8-14.6-20.9-32.8-20.9-54.2
		c0-20.4,7.2-38,21.5-52.5c14.3-14.5,31.7-21.8,51.8-21.8c25.7,0,45.8,11.4,59.6,33.9l1.4,2.3l-25.1,23.5l-2.1-3.6
		c-3.9-6.7-8.7-11.8-14.4-15c-5.6-3.3-11.6-4.9-17.7-4.9c-10.1,0-18.6,3.7-26.1,11.5c-7.5,7.7-11.2,16.6-11.2,27.1
		c0,11.2,3.7,20.5,11.2,28.2c7.5,7.7,16.2,11.5,26.8,11.5c5.6,0,11.1-1.4,16.3-4.3c4-2.2,7.4-6,10.2-11.3h-31.3v-34H875V226.4z
		 M1010.3,437H963l-38.5-67.2H924V437h-46.9V300.2h48l38.3,67.2h0.4v-67.2h46.5V437z M1018.3,284.2h-46.9v-50.5h-33.3v50.5h-46.9
		V147.4h46.9v48.4h33.3v-48.4h46.9V284.2z M1134.7,339.2h-27.6V437h-46.5v-97.8h-27.6v-39h101.8V339.2z"/>
</g>
</svg>
