<svg id="Layer_1" data-name="Layer 1" xmlns="http://www.w3.org/2000/svg" viewBox="0 0 702.3 321.62">
  <defs>
    <style>
      .cls-1 {
        fill: #231f20;
      }
    </style>
  </defs>
  <title>Untitled-1</title>
  <g>
    <path class="cls-1" d="M470.49,149.34V301.81h52.3V245.54h37.12v56.27h52.3V149.34h-52.3v53.93H522.79V149.34h-52.3ZM294.68,224.52c0,48.8,33.62,81.48,83.12,81.48,16.58,0,45.29-6.07,70-23.81V214.49H375v31.05h20.55V263c-7.47,2.1-11.21,2.8-15.41,2.8-19.85,0-30.82-14-30.82-40.16,0-23.12,10.74-37.82,26.85-37.82,7.7,0,14.71,3,20.55,12.38l48.1-15.64c-13.31-28-34.32-39.22-66.77-39.22-50.67,0-83.35,31.29-83.35,79.15M222.3,301.81h51.83V149.34H222.3V301.81ZM46.72,149.34V301.81H99V245.54h37.12v56.27h52.3V149.34h-52.3v53.93H99V149.34H46.72Z" transform="translate(-45 -145.38)"/>
    <path class="cls-1" d="M633.83,310.57V354h30.82V463h51.83V354H747.3V310.57H633.83Zm-173.71,0V463h52.3V388.08h0.47l43,74.95h52.77V310.57H556.78v74.95h-0.47l-42.73-74.95H460.12ZM373.5,463h51.83V310.57H373.5V463ZM272.64,355.4c18.21,0,27.32,11.91,27.32,30.35,0,22.42-9.57,32.45-28.25,32.45-17.28,0-26.62-11.44-26.62-30.82,0-18.68,7.94-32,27.55-32m-82.18,32c0,49.5,33.62,79.62,82.42,79.62,42.49,0,81.25-25.45,81.25-82,0-44.6-31.05-78.45-82.65-78.45-38.06,0-81,23.58-81,80.78m-64.67-24c0,13.78-11.91,15.64-18.44,15.64H97.07V347.22h11.21c8.41,0,17.51,4,17.51,16.11M45,310.57V463H97.07V415.4h28.72c18.91,0,54.17-4.67,54.17-53.7,0-29.88-17.51-51.13-51.13-51.13H45Z" transform="translate(-45 -145.38)"/>
  </g>
</svg>
