<?xml version="1.0" encoding="UTF-8"?>
<svg width="703px" height="323px" viewBox="0 0 703 323" version="1.1" xmlns="http://www.w3.org/2000/svg" xmlns:xlink="http://www.w3.org/1999/xlink">
    <!-- Generator: Sketch 43.1 (39012) - http://www.bohemiancoding.com/sketch -->
    <title>Untitled</title>
    <desc>Created with Sketch.</desc>
    <defs></defs>
    <g id="Page-1" stroke="none" stroke-width="1" fill="none" fill-rule="evenodd">
        <g id="HighpointLogo_Stacked" fill-rule="nonzero" fill="#231F20">
            <path d="M482.490001,4.96 L482.490001,157.43 L534.790001,157.43 L534.790001,101.16 L571.910001,101.16 L571.910001,157.43 L624.210001,157.43 L624.210001,4.96 L571.910001,4.96 L571.910001,58.89 L534.790001,58.89 L534.790001,4.96 L482.490001,4.96 Z M306.680001,80.14 C306.680001,128.94 340.300001,161.62 389.800001,161.62 C406.380001,161.62 435.090001,155.55 459.800001,137.81 L459.800001,70.11 L387.000001,70.11 L387.000001,101.16 L407.550001,101.16 L407.550001,118.62 C400.080001,120.72 396.340001,121.42 392.140001,121.42 C372.290001,121.42 361.320001,107.42 361.320001,81.26 C361.320001,58.14 372.060001,43.44 388.170001,43.44 C395.870001,43.44 402.880001,46.44 408.720001,55.82 L456.820001,40.18 C443.510001,12.18 422.500001,0.96 390.050001,0.96 C339.380001,0.96 306.700001,32.25 306.700001,80.11 L306.680001,80.14 Z M234.300001,157.43 L286.130001,157.43 L286.130001,4.96 L234.300001,4.96 L234.300001,157.43 Z M58.7200012,4.96 L58.7200012,157.43 L111.000001,157.43 L111.000001,101.16 L148.120001,101.16 L148.120001,157.43 L200.420001,157.43 L200.420001,4.96 L148.120001,4.96 L148.120001,58.89 L111.000001,58.89 L111.000001,4.96 L58.7200012,4.96 Z" id="Shape"></path>
            <path d="M588.83,166.19 L588.83,209.62 L619.65,209.62 L619.65,318.62 L671.48,318.62 L671.48,209.62 L702.3,209.62 L702.3,166.19 L588.83,166.19 Z M415.12,166.19 L415.12,318.62 L467.42,318.62 L467.42,243.7 L467.89,243.7 L510.89,318.65 L563.66,318.65 L563.66,166.19 L511.78,166.19 L511.78,241.14 L511.31,241.14 L468.58,166.19 L415.12,166.19 Z M328.5,318.62 L380.33,318.62 L380.33,166.19 L328.5,166.19 L328.5,318.62 Z M227.64,211.02 C245.85,211.02 254.96,222.93 254.96,241.37 C254.96,263.79 245.39,273.82 226.71,273.82 C209.43,273.82 200.09,262.38 200.09,243 C200.09,224.32 208.03,211 227.64,211 L227.64,211.02 Z M145.46,243 C145.46,292.5 179.08,322.62 227.88,322.62 C270.37,322.62 309.13,297.17 309.13,240.62 C309.13,196.02 278.08,162.17 226.48,162.17 C188.42,162.17 145.48,185.75 145.48,242.95 L145.46,243 Z M80.81,218.95 C80.81,232.73 68.9,234.59 62.37,234.59 L52.07,234.59 L52.07,202.84 L63.28,202.84 C71.69,202.84 80.79,206.84 80.79,218.95 L80.81,218.95 Z M0,166.19 L0,318.62 L52.07,318.62 L52.07,271.02 L80.79,271.02 C99.7,271.02 134.96,266.35 134.96,217.32 C134.96,187.44 117.45,166.19 83.83,166.19 L0,166.19 Z" id="Shape"></path>
        </g>
    </g>
</svg>