<?xml version="1.0" encoding="UTF-8"?>
<svg width="53px" height="154px" viewBox="0 0 53 154" version="1.1" xmlns="http://www.w3.org/2000/svg" xmlns:xlink="http://www.w3.org/1999/xlink">
    <!-- Generator: Sketch 43.1 (39012) - http://www.bohemiancoding.com/sketch -->
    <title>Untitled</title>
    <desc>Created with Sketch.</desc>
    <defs></defs>
    <g id="Page-1" stroke="none" stroke-width="1" fill="none" fill-rule="evenodd">
        <g id="highpoint_center_stacked" transform="translate(-234.000000, -4.000000)" fill-rule="nonzero" fill="#231F20">
            <path d="M482.490001,4.96 L482.490001,157.43 L534.790001,157.43 L534.790001,101.16 L571.910001,101.16 L571.910001,157.43 L624.210001,157.43 L624.210001,4.96 L571.910001,4.96 L571.910001,58.89 L534.790001,58.89 L534.790001,4.96 L482.490001,4.96 Z M306.680001,80.14 C306.680001,128.94 340.300001,161.62 389.800001,161.62 C406.380001,161.62 435.090001,155.55 459.800001,137.81 L459.800001,70.11 L387.000001,70.11 L387.000001,101.16 L407.550001,101.16 L407.550001,118.62 C400.080001,120.72 396.340001,121.42 392.140001,121.42 C372.290001,121.42 361.320001,107.42 361.320001,81.26 C361.320001,58.14 372.060001,43.44 388.170001,43.44 C395.870001,43.44 402.880001,46.44 408.720001,55.82 L456.820001,40.18 C443.510001,12.18 422.500001,0.96 390.050001,0.96 C339.380001,0.96 306.700001,32.25 306.700001,80.11 L306.680001,80.14 Z M234.300001,157.43 L286.130001,157.43 L286.130001,4.96 L234.300001,4.96 L234.300001,157.43 Z M58.7200012,4.96 L58.7200012,157.43 L111.000001,157.43 L111.000001,101.16 L148.120001,101.16 L148.120001,157.43 L200.420001,157.43 L200.420001,4.96 L148.120001,4.96 L148.120001,58.89 L111.000001,58.89 L111.000001,4.96 L58.7200012,4.96 Z" id="Shape"></path>
        </g>
    </g>
</svg>