<?xml version="1.0" encoding="utf-8"?>
<!-- Generator: Adobe Illustrator 19.2.1, SVG Export Plug-In . SVG Version: 6.00 Build 0)  -->
<svg version="1.1" id="Layer_1" xmlns="http://www.w3.org/2000/svg" xmlns:xlink="http://www.w3.org/1999/xlink" x="0px" y="0px"
	 viewBox="0 0 792 612" style="enable-background:new 0 0 792 612;" xml:space="preserve">
<g>
	<path d="M470.5,149.3v152.5h52.3v-56.3h37.1v56.3h52.3V149.3h-52.3v53.9h-37.1v-53.9H470.5z M294.7,224.5
		c0,48.8,33.6,81.5,83.1,81.5c16.6,0,45.3-6.1,70-23.8v-67.7H375v31.1h20.5V263c-7.5,2.1-11.2,2.8-15.4,2.8
		c-19.8,0-30.8-14-30.8-40.2c0-23.1,10.7-37.8,26.9-37.8c7.7,0,14.7,3,20.5,12.4l48.1-15.6c-13.3-28-34.3-39.2-66.8-39.2
		C327.4,145.4,294.7,176.7,294.7,224.5 M222.3,301.8h51.8V149.3h-51.8V301.8z M46.7,149.3v152.5H99v-56.3h37.1v56.3h52.3V149.3
		h-52.3v53.9H99v-53.9H46.7z"/>
	<path d="M633.8,310.6V354h30.8v109h51.8V354h30.8v-43.4H633.8z M460.1,310.6V463h52.3v-74.9h0.5l43,74.9h52.8V310.6h-51.8v74.9
		h-0.5l-42.7-74.9H460.1z M373.5,463h51.8V310.6h-51.8V463z M272.6,355.4c18.2,0,27.3,11.9,27.3,30.4c0,22.4-9.6,32.5-28.3,32.5
		c-17.3,0-26.6-11.4-26.6-30.8C245.1,368.7,253,355.4,272.6,355.4 M190.5,387.4c0,49.5,33.6,79.6,82.4,79.6
		c42.5,0,81.3-25.4,81.3-82c0-44.6-31.1-78.4-82.7-78.4C233.4,306.6,190.5,330.2,190.5,387.4 M125.8,363.3
		c0,13.8-11.9,15.6-18.4,15.6H97.1v-31.8h11.2C116.7,347.2,125.8,351.2,125.8,363.3 M45,310.6V463h52.1v-47.6h28.7
		c18.9,0,54.2-4.7,54.2-53.7c0-29.9-17.5-51.1-51.1-51.1H45z"/>
</g>
</svg>
