<svg xmlns="http://www.w3.org/2000/svg" viewBox="0 0 1200 174.11"><title>Asset 1</title><g id="Layer_2" data-name="Layer 2"><g id="black"><path d="M0,140.37H18.49V4.73H0V1.5H63.41V4.73H44.71V70.51h70.51V4.73H96.73V1.5h63.41V4.73h-18.7V140.37h18.7v3.22H96.73v-3.22h18.49V73.73H44.71v66.64h18.7v3.22H0Z"/><path d="M173.67,140.37h18.49V4.73H173.67V1.5h63.41V4.73h-18.7V140.37h18.7v3.22H173.67Z"/><path d="M367.55,143.59c-.64-1.29-3.22-8.17-8.6-9.89-7.31,6-19.13,11.39-40.63,11.39-39.55,0-66.85-28.16-66.85-72.65C251.48,29,278.13,0,321.12,0c13.33,0,25.15,4.08,33.54,11.82,6.23,0,9.46-2.36,12.47-10.32h2.8c-1.08,3.87-4.09,22.14-4.09,31V45.78h-3.22V37.62c0-20.42-17.2-34.39-41.49-34.39-32.24,0-41.49,30.31-41.49,70.72,0,41.92,10.75,67.93,38.48,67.93,14.18,0,28.8-6.45,28.8-23.65V88.13H326.28V84.91h57.18v3.22H370.78v55.46Z"/><path d="M393.55,140.37H412V4.73H393.55V1.5H457V4.73h-18.7V70.51h70.51V4.73H490.28V1.5h63.41V4.73H535V140.37h18.7v3.22H490.28v-3.22h18.49V73.73H438.26v66.64H457v3.22H393.55Z"/><path d="M567.22,169.39H585.7V33.75H567.22V30.52h59.54c43.85,0,57.61,18.06,57.61,40.63,0,26-20,43-50.94,43a54.73,54.73,0,0,1-8-.43v-3.22a51.6,51.6,0,0,0,6.45.43c18.06,0,24.72-16.33,24.72-39.12,0-24.07-6.45-38-30.09-38H611.93V169.39h20.63v3.22H567.22Z"/><path d="M700,99.74c0-43,20.21-70.72,67.28-70.72,46.86,0,67.06,27.73,67.06,70.72,0,41.92-18.27,74.38-67.06,74.38C718.32,174.11,700,141.65,700,99.74Zm106.19,2.37c0-40-5.37-70.29-39.12-70.29-33.53,0-38.91,30.31-38.91,70.29,0,36.54,6,69.22,38.91,69.22C800.22,171.32,806.24,138.65,806.24,102.1Z"/><path d="M849.64,169.39h18.49V33.75H849.64V30.52h63.41v3.23h-18.7V169.39h18.7v3.22H849.64Z"/><path d="M927,169.39h6.45c9.46,0,12.9-4.73,12.9-12.9V45.14l-1.07-1.51c-4.3-6-7.52-9.89-16.55-9.89h-3.87V30.52h42.56L1045,133.7V46.64c0-8.17-3.44-12.9-12.9-12.9h-6.45V30.52h41.92v3.23h-6.66c-9.46,0-12.68,4.73-12.68,12.9V173.47h-5.8l-92.86-124V156.49c0,8.17,3.23,12.9,12.68,12.9h6.67v3.22H927Z"/><path d="M1107.14,169.39h18.49V33.75H1099.4c-11,0-15.48,5.8-17.19,21.49l-1.72,15.48h-3.22s1.29-19.34,1.29-26.65V30.52h120.59V44.06c0,7.31.86,26.65.86,26.65h-3.23l-1.5-15.91c-1.29-14.62-5.38-21.06-16.55-21.06h-26.87V169.39h18.7v3.22h-63.41Z"/><rect y="169.39" width="553.69" height="3.22"/><rect x="567.22" y="1.5" width="631.92" height="3.23"/></g></g></svg>