<svg xmlns="http://www.w3.org/2000/svg" viewBox="0 0 403.07 219.18"><title>logo stackedAsset 1</title><g id="Layer_2" data-name="Layer 2"><g id="black"><polygon points="117.41 5.99 117.41 88.72 129.23 88.72 129.23 93.77 86.14 93.77 86.14 88.72 97.83 88.72 97.83 49.6 56.26 49.6 56.26 88.72 68.08 88.72 68.08 93.77 25 93.77 25 88.72 36.68 88.72 36.68 5.99 25 5.99 25 0.94 68.08 0.94 68.08 5.99 56.26 5.99 56.26 44.56 97.83 44.56 97.83 5.99 86.14 5.99 86.14 0.94 129.23 0.94 129.23 5.99 117.41 5.99"/><polygon points="166.04 5.99 166.04 88.72 177.87 88.72 177.87 93.77 134.78 93.77 134.78 88.72 146.47 88.72 146.47 5.99 134.78 5.99 134.78 0.94 177.87 0.94 177.87 5.99 166.04 5.99"/><path d="M270.39,53.67v5h-8V93.76h-4.46l-.42-.83c0-.1-.11-.24-.2-.41-.47-1.06-1.67-3.7-3.66-4.79-6.12,4.7-14.61,7-25.92,7-12.8,0-23.73-4.46-31.6-12.89S184,61.36,184,47.29C184,18.56,201.83,0,229.48,0c8.59,0,16.29,2.64,21.77,7.46,2.67-.11,4.23-1.1,5.91-5.55l.36-1h4.78l-.53,1.9c-.61,2.23-2.52,13.62-2.52,19.17v9.93h-5V25.27C254.21,13.36,244,5,229.48,5c-16.87,0-24.72,13.73-24.72,43.2,0,27.89,7.46,41.44,22.82,41.44,8.08,0,16.71-3.54,16.71-13.45V58.71h-13v-5Z"/><polygon points="366.18 5.99 366.18 88.72 378 88.72 378 93.77 334.92 93.77 334.92 88.72 346.6 88.72 346.6 49.6 305.03 49.6 305.03 88.72 316.86 88.72 316.86 93.77 273.77 93.77 273.77 88.72 285.45 88.72 285.45 5.99 273.77 5.99 273.77 0.94 316.86 0.94 316.86 5.99 305.03 5.99 305.03 44.56 346.6 44.56 346.6 5.99 334.92 5.99 334.92 0.94 378 0.94 378 5.99 366.18 5.99"/><path d="M77,152.6c0,8.53-3.21,15.75-9.29,20.9s-14.46,7.77-24.4,7.77a36.3,36.3,0,0,1-5.27-.29l-1.26-.21v-5l1.71.24a31,31,0,0,0,3.87.26c9.37,0,14.12-7.82,14.12-23.23,0-16.23-4.92-22.55-17.52-22.55H31.26v82.74h13v5H0v-5H11.68V130.45H0v-5H39.14c13.29,0,23.23,2.64,29.55,7.83C74.24,137.8,77,144.32,77,152.6Z"/><path d="M161.42,137.13c-7.45-8.4-18.7-12.66-33.43-12.66s-26.07,4.26-33.54,12.66C87.49,145,84,156.24,84,170.66c0,31.29,15.64,48.52,44,48.52s43.89-17.23,43.89-48.52C171.89,156.24,168.37,145,161.42,137.13Zm-33.57,77.29c-16.19,0-23.1-12.63-23.1-42.25,0-26.51,3.87-42.93,23.1-42.93s23.23,16.43,23.23,42.93C151.09,201.78,144.14,214.41,127.86,214.41Z"/><polygon points="209.79 130.46 209.79 213.19 221.62 213.19 221.62 218.23 178.53 218.23 178.53 213.19 190.22 213.19 190.22 130.46 178.53 130.46 178.53 125.42 221.62 125.42 221.62 130.46 209.79 130.46"/><path d="M319.3,125.41v5h-5.71c-4.69,0-6.52,1.86-6.52,6.65v81.67h-5.92l-56.46-75.4v63.16c0,4.79,1.83,6.65,6.52,6.65h5.71v5H227.44v-5H233c4.73,0,6.66-1.93,6.66-6.65v-69.9l-.4-.56c-2.64-3.7-4.25-5.62-9.24-5.62h-3.95v-5h29.15L302,187.64V137.1c0-4.73-1.93-6.65-6.65-6.65h-5.58v-5Z"/><path d="M403.07,153.82h-5L397,142.41c-.89-10.06-3.83-12-9-12H372.56v82.74h11.82v5H341.3v-5H353V130.45H337.9c-5.21,0-8.25,2-9.38,12.25l-1.23,11.11h-5l.11-1.6c0-.12.81-12.23.81-16.75V125.41h79.23v10.06c0,4.54.54,16.66.54,16.78Z"/><rect y="107.07" width="402.45" height="5.04"/></g></g></svg>