<?xml version="1.0" encoding="UTF-8" ?>
<!DOCTYPE svg PUBLIC "-//W3C//DTD SVG 1.1//EN" "http://www.w3.org/Graphics/SVG/1.1/DTD/svg11.dtd">
<svg width="1000pt" height="1000pt" viewBox="0 0 1000 1000" version="1.1" xmlns="http://www.w3.org/2000/svg">

<g id="#000000ff">
<path fill="#000000" opacity="1.00" d=" M 372.62 232.27 C 380.10 232.24 387.57 232.26 395.04 232.25 C 411.21 231.76 427.57 240.64 435.53 254.79 C 438.28 259.71 439.57 265.35 439.44 270.98 C 439.44 317.69 439.44 364.40 439.44 411.10 C 439.44 417.10 441.77 423.67 447.24 426.76 C 454.08 430.72 462.34 430.67 470.01 430.47 C 476.59 430.10 484.04 428.91 488.45 423.48 C 492.78 418.02 492.85 410.64 492.76 404.00 C 492.73 360.98 492.79 317.96 492.73 274.95 C 492.42 265.26 492.15 254.76 486.64 246.38 C 482.03 239.56 473.34 237.51 465.59 237.21 C 465.60 235.56 465.61 233.91 465.63 232.27 C 473.76 232.26 481.89 232.23 490.02 232.27 C 501.05 232.21 511.68 237.00 519.95 244.11 C 527.29 250.58 532.72 260.00 532.30 270.02 C 532.25 316.04 532.28 362.07 532.29 408.09 C 532.33 414.34 533.24 421.49 538.52 425.59 C 544.59 430.19 552.64 430.53 559.96 430.56 C 566.66 430.38 574.06 429.90 579.49 425.48 C 584.28 421.49 585.57 414.92 585.73 408.99 C 585.76 365.66 585.72 322.33 585.75 279.00 C 585.81 271.81 585.48 264.59 584.13 257.52 C 582.86 251.80 580.53 245.85 575.66 242.27 C 570.84 238.55 564.59 237.57 558.68 237.21 C 558.68 235.56 558.68 233.91 558.68 232.27 C 566.79 232.26 574.90 232.23 583.02 232.26 C 594.02 232.23 604.66 236.97 612.90 244.09 C 620.01 250.37 625.32 259.32 625.36 269.00 C 625.36 315.99 625.33 362.97 625.37 409.95 C 625.32 415.84 627.00 422.34 632.00 425.95 C 637.83 430.07 645.29 430.44 652.18 430.60 C 652.19 432.28 652.20 433.96 652.22 435.66 C 639.16 435.27 626.08 435.46 613.03 434.85 C 583.38 435.49 553.70 435.89 524.04 435.03 C 517.68 434.46 511.32 435.34 504.96 435.17 C 478.64 435.57 452.31 435.81 426.00 434.84 C 408.28 435.45 390.53 435.28 372.80 435.61 C 372.79 433.95 372.79 432.29 372.79 430.64 C 379.90 430.36 387.80 430.19 393.56 425.40 C 398.28 421.42 399.61 414.92 399.71 409.03 C 399.72 364.01 399.74 318.98 399.71 273.96 C 399.42 265.70 399.03 257.12 395.47 249.51 C 391.67 240.72 381.58 237.30 372.66 237.23 C 372.64 235.58 372.63 233.92 372.62 232.27 Z" />
<path fill="#000000" opacity="1.00" d=" M 88.84 494.53 C 89.19 493.37 88.99 491.59 90.36 491.14 C 92.94 494.85 94.73 499.02 96.89 502.98 C 110.00 527.42 122.18 552.34 134.87 576.99 C 143.54 559.45 152.50 542.04 161.27 524.55 C 166.91 514.62 172.09 504.43 177.27 494.26 C 178.15 493.24 178.69 490.88 180.39 491.41 C 181.15 493.86 181.33 496.43 181.51 498.99 C 183.92 526.30 186.39 553.61 189.45 580.86 C 190.09 586.40 190.69 591.96 191.81 597.43 C 187.04 597.79 181.56 596.09 177.30 598.61 C 176.15 572.23 174.25 545.90 172.48 519.56 C 162.53 540.47 151.70 560.96 141.61 581.80 C 138.58 587.35 136.63 593.51 133.02 598.72 C 123.73 579.42 114.38 560.14 105.13 540.82 C 101.91 533.62 98.11 526.67 95.45 519.23 C 93.80 534.75 93.20 550.37 91.84 565.92 C 91.37 576.42 90.25 586.89 90.23 597.41 C 85.92 597.28 81.60 597.24 77.30 597.67 C 80.68 575.47 82.78 553.11 85.21 530.80 C 86.41 518.71 87.92 506.65 88.84 494.53 Z" />
<path fill="#000000" opacity="1.00" d=" M 330.87 496.81 C 344.89 490.47 360.84 490.38 375.82 492.52 C 382.38 493.42 388.74 495.30 395.05 497.26 C 393.89 501.58 393.34 506.03 393.12 510.50 C 385.11 502.93 373.72 500.38 363.04 499.66 C 350.93 498.83 337.75 501.03 328.47 509.43 C 320.11 516.42 315.93 527.28 315.37 537.97 C 314.15 552.81 319.03 568.62 330.29 578.74 C 339.65 587.21 352.60 590.54 364.99 590.40 C 375.03 590.22 385.46 588.68 394.12 583.24 C 393.16 587.06 392.83 591.01 391.86 594.82 C 378.28 599.75 363.34 600.70 349.09 598.65 C 332.70 596.43 316.87 587.12 308.79 572.40 C 300.37 556.88 299.24 537.36 306.40 521.15 C 311.10 510.32 320.08 501.54 330.87 496.81 Z" />
<path fill="#000000" opacity="1.00" d=" M 220.20 522.21 C 228.08 513.61 239.42 508.88 250.89 507.65 C 264.63 506.13 278.61 507.97 291.69 512.39 C 290.59 516.35 290.20 520.45 290.03 524.54 C 282.14 517.46 271.27 515.21 260.97 514.78 C 251.91 514.68 242.33 516.25 234.97 521.90 C 226.38 528.42 222.09 539.42 222.31 550.02 C 221.94 561.94 226.89 574.22 236.31 581.73 C 244.03 587.99 254.15 590.62 263.96 590.61 C 273.31 590.71 283.13 589.45 291.15 584.29 C 290.25 587.89 289.51 591.54 289.09 595.24 C 280.14 598.58 270.45 599.32 260.98 599.20 C 249.02 599.07 236.65 596.36 226.97 589.03 C 206.47 574.15 202.87 540.83 220.20 522.21 Z" />
<path fill="#000000" opacity="1.00" d=" M 441.35 509.44 C 441.61 508.30 443.36 506.07 444.26 507.87 C 449.26 517.70 453.48 527.92 458.14 537.92 C 463.57 549.91 469.25 561.79 474.55 573.84 C 478.32 581.84 481.75 590.02 486.35 597.60 C 481.29 597.22 476.20 597.23 471.14 597.60 C 467.70 587.41 462.96 577.72 459.06 567.71 C 448.28 567.64 437.50 567.63 426.72 567.72 C 423.16 577.61 419.25 587.38 416.19 597.45 C 412.01 597.22 407.82 597.32 403.66 597.69 C 417.36 568.77 428.63 538.78 441.35 509.44 M 429.48 559.84 C 438.37 559.93 447.26 559.88 456.16 559.86 C 451.48 548.92 446.80 537.98 442.14 527.03 C 437.96 537.98 433.81 548.94 429.48 559.84 Z" />
<path fill="#000000" opacity="1.00" d=" M 667.34 514.34 C 673.00 508.78 681.32 506.90 689.05 507.16 C 694.70 507.10 700.19 508.57 705.80 508.99 C 705.43 513.18 705.11 517.38 704.71 521.57 C 700.28 516.62 693.39 514.84 686.97 514.75 C 681.14 514.69 674.61 517.57 672.68 523.47 C 671.43 528.19 672.02 533.74 675.45 537.44 C 682.47 545.48 693.22 548.80 700.59 556.46 C 704.56 560.21 707.29 565.37 707.65 570.87 C 708.94 582.17 701.60 593.94 690.67 597.38 C 679.82 600.56 667.58 599.79 657.49 594.53 C 658.09 590.24 658.46 585.93 658.50 581.61 C 664.23 588.81 674.01 592.44 683.06 591.00 C 687.00 590.40 690.81 588.39 693.14 585.10 C 696.16 581.08 696.34 575.61 695.15 570.90 C 693.24 565.02 687.79 561.48 682.92 558.20 C 676.10 553.87 668.70 549.69 664.31 542.65 C 658.79 534.05 659.66 521.39 667.34 514.34 Z" />
<path fill="#000000" opacity="1.00" d=" M 719.19 508.22 C 731.37 509.93 743.69 509.03 755.94 509.25 C 769.17 509.04 782.46 509.88 795.65 508.37 C 794.86 512.07 794.40 515.84 794.33 519.63 C 789.62 517.28 784.27 517.60 779.17 517.18 C 773.39 516.74 767.59 516.75 761.80 516.78 C 762.04 543.67 761.19 570.59 762.84 597.45 C 758.31 597.28 753.77 597.20 749.26 597.64 C 750.82 570.71 749.87 543.72 750.12 516.76 C 739.10 516.84 727.92 516.57 717.08 518.88 C 717.92 515.35 718.60 511.79 719.19 508.22 Z" />
<path fill="#000000" opacity="1.00" d=" M 499.36 509.11 C 504.03 509.22 508.72 509.24 513.37 508.73 C 511.70 527.78 512.41 546.94 512.26 566.04 C 512.40 573.77 511.88 581.53 512.77 589.23 C 519.41 590.73 526.25 590.16 533.01 590.24 C 538.49 589.99 544.09 589.81 549.33 587.98 C 548.01 591.15 547.15 594.47 546.37 597.81 C 530.81 598.61 515.24 597.04 499.68 597.44 C 500.90 577.65 500.52 557.81 500.58 537.99 C 500.24 528.36 500.44 518.70 499.36 509.11 Z" />
<path fill="#000000" opacity="1.00" d=" M 562.08 509.09 C 566.66 509.23 571.26 509.26 575.83 508.75 C 574.29 531.13 574.94 553.58 574.81 576.00 C 574.81 580.46 574.64 584.96 575.53 589.36 C 582.30 590.60 589.19 590.22 596.04 590.23 C 601.36 590.03 606.75 589.72 611.85 588.05 C 610.70 591.24 609.75 594.50 609.00 597.80 C 593.60 598.67 578.19 596.93 562.81 597.53 L 562.16 598.64 C 563.59 578.78 563.19 558.84 563.23 538.94 C 562.64 529.00 563.06 519.02 562.08 509.09 Z" />
<path fill="#000000" opacity="1.00" d=" M 624.59 509.13 C 629.18 509.24 633.78 509.21 638.36 508.70 C 637.17 523.09 637.63 537.55 637.53 551.98 C 637.64 567.17 637.11 582.40 638.51 597.55 C 633.94 597.21 629.36 597.28 624.82 597.76 C 626.02 580.51 625.60 563.21 625.67 545.93 C 625.59 533.66 626.03 521.34 624.59 509.13 Z" />
<path fill="#000000" opacity="1.00" d=" M 805.55 509.17 C 814.71 509.36 823.87 509.21 833.03 509.25 C 838.90 509.19 844.81 509.55 850.64 508.68 C 850.26 512.09 849.96 515.51 849.70 518.94 C 839.55 516.10 828.87 517.08 818.45 516.76 C 818.41 526.79 818.39 536.83 818.47 546.87 C 828.52 546.63 838.67 547.29 848.65 545.76 C 848.10 549.42 847.79 553.11 847.44 556.80 C 847.15 556.54 846.55 556.01 846.26 555.74 C 837.12 553.79 827.71 554.47 818.45 554.38 C 818.50 565.33 818.20 576.29 818.69 587.23 C 818.60 590.03 822.17 589.52 824.05 589.92 C 834.06 590.51 844.37 590.76 854.10 587.98 C 853.10 591.22 852.24 594.51 851.56 597.83 C 836.89 598.53 822.23 597.12 807.56 597.40 C 807.15 597.82 806.75 598.25 806.35 598.68 C 805.56 595.13 806.33 591.54 806.38 587.96 C 807.11 567.32 807.09 546.65 806.70 526.00 C 806.50 520.38 806.59 514.71 805.55 509.17 Z" />
<path fill="#000000" opacity="1.00" d=" M 871.29 509.15 C 883.86 509.75 896.66 507.11 909.06 510.29 C 916.14 511.92 922.33 517.11 924.92 523.94 C 927.81 531.72 926.45 540.85 921.75 547.65 C 919.11 551.50 915.50 554.56 911.74 557.27 C 922.94 571.19 933.04 586.45 947.41 597.38 C 940.84 598.46 932.96 599.31 927.77 594.21 C 919.06 586.07 912.60 575.93 905.42 566.50 C 903.92 564.75 902.93 562.36 900.93 561.19 C 895.34 560.82 889.73 561.09 884.14 561.09 C 884.28 573.21 884.04 585.37 885.15 597.46 C 880.60 597.23 876.04 597.26 871.51 597.63 C 873.17 576.45 872.52 555.19 872.66 533.97 C 872.51 525.69 872.53 517.36 871.29 509.15 M 883.82 518.94 C 884.73 530.35 883.32 541.81 884.30 553.22 C 889.83 553.80 895.42 554.31 900.99 554.03 C 903.61 553.99 906.09 552.86 907.92 551.01 C 916.63 543.51 917.32 528.02 908.43 520.41 C 902.18 515.25 893.52 515.23 885.88 515.97 C 884.06 515.91 884.08 517.64 883.82 518.94 Z" />
<path fill="#000000" opacity="1.00" d=" M 426.69 655.73 C 431.57 645.05 436.70 634.48 442.04 624.03 C 447.38 634.48 452.67 645.00 457.34 655.78 C 455.85 655.78 454.37 655.78 452.89 655.79 C 451.64 653.30 450.44 650.80 449.29 648.27 C 444.45 648.29 439.61 648.28 434.77 648.29 C 433.62 650.78 432.47 653.28 431.31 655.77 C 430.16 655.76 427.85 655.74 426.69 655.73 M 436.31 644.47 C 440.15 644.49 443.99 644.49 447.84 644.46 C 445.89 640.26 443.95 636.06 442.06 631.83 C 440.11 636.03 438.28 640.28 436.31 644.47 Z" />
<path fill="#000000" opacity="1.00" d=" M 266.10 655.76 C 266.85 645.16 268.30 634.60 269.85 624.09 C 275.70 632.25 279.69 641.61 284.89 650.21 C 288.94 642.54 293.25 635.02 297.34 627.37 C 297.93 626.11 298.84 625.03 299.98 624.24 C 301.15 634.75 302.65 645.22 303.76 655.74 C 302.36 655.76 300.97 655.79 299.58 655.82 C 298.69 648.73 297.99 641.61 297.16 634.51 C 292.97 641.92 289.55 649.78 284.94 656.94 C 282.31 654.05 280.95 650.35 279.10 646.98 C 276.93 642.70 274.44 638.58 272.64 634.13 C 271.78 641.33 270.83 648.53 270.10 655.76 C 268.77 655.76 267.43 655.76 266.10 655.76 Z" />
<path fill="#000000" opacity="1.00" d=" M 325.25 655.68 C 330.48 645.15 335.18 634.34 340.84 624.04 C 346.06 634.52 351.20 645.04 356.09 655.68 C 354.57 655.73 353.06 655.77 351.55 655.79 C 350.32 653.31 349.12 650.81 347.98 648.30 C 343.13 648.27 338.28 648.28 333.43 648.28 C 332.24 650.76 331.31 653.39 329.81 655.72 C 328.29 655.83 326.76 655.73 325.25 655.68 M 340.77 631.84 C 338.84 636.04 336.91 640.24 334.99 644.45 C 338.84 644.51 342.69 644.49 346.54 644.46 C 344.56 640.28 342.63 636.07 340.77 631.84 Z" />
<path fill="#000000" opacity="1.00" d=" M 378.75 624.16 C 380.02 625.19 381.30 626.27 382.35 627.55 C 388.03 634.33 394.03 640.83 399.67 647.64 C 399.80 640.19 399.67 632.73 399.74 625.28 C 401.21 625.27 402.69 625.29 404.17 625.32 C 404.25 634.22 404.16 643.13 404.23 652.03 C 404.34 653.70 403.95 655.34 403.44 656.94 C 396.41 649.31 390.05 641.08 382.83 633.64 C 382.65 641.03 382.84 648.43 382.71 655.82 C 381.69 655.80 379.65 655.76 378.63 655.74 C 378.66 645.21 378.45 634.68 378.75 624.16 Z" />
<path fill="#000000" opacity="1.00" d=" M 485.49 626.73 C 491.70 622.92 499.81 624.68 505.15 629.21 C 504.37 630.44 503.44 631.58 502.42 632.63 C 499.80 630.35 496.68 628.24 493.05 628.42 C 485.54 628.46 480.04 637.04 482.42 643.96 C 483.67 649.06 488.73 653.10 494.05 652.62 C 496.74 652.58 499.10 651.22 501.38 649.95 C 501.39 647.76 501.42 645.58 501.44 643.41 C 498.69 643.39 495.95 643.38 493.22 643.37 C 493.16 642.15 493.12 640.93 493.10 639.72 C 497.27 639.64 501.44 639.66 505.61 639.69 C 505.57 643.51 505.83 647.36 505.44 651.17 C 499.13 658.72 485.64 658.01 480.33 649.59 C 475.10 642.33 477.55 630.96 485.49 626.73 Z" />
<path fill="#000000" opacity="1.00" d=" M 530.40 625.33 C 537.43 625.13 544.47 625.26 551.50 625.27 C 551.50 626.46 551.50 627.65 551.50 628.86 C 545.87 629.00 540.23 628.72 534.60 629.11 C 534.61 632.27 534.61 635.44 534.63 638.60 C 540.01 638.59 545.39 638.59 550.77 638.61 C 550.76 639.51 550.74 641.31 550.73 642.21 C 545.35 642.21 539.97 642.22 534.60 642.23 C 534.63 645.52 534.62 648.82 534.61 652.13 C 540.24 652.13 545.88 652.05 551.52 652.19 C 551.50 653.38 551.48 654.58 551.47 655.79 C 544.46 655.79 537.44 655.87 530.44 655.73 C 530.25 645.60 530.31 635.46 530.40 625.33 Z" />
<path fill="#000000" opacity="1.00" d=" M 575.10 655.70 C 575.97 645.14 577.34 634.59 578.91 624.11 C 580.77 626.00 581.89 628.43 583.16 630.73 C 586.71 637.23 590.29 643.72 593.93 650.18 C 597.90 642.80 602.05 635.52 605.98 628.11 C 606.72 626.62 607.73 625.28 608.92 624.12 C 610.32 634.66 611.70 645.22 612.73 655.81 C 611.37 655.45 608.66 656.70 608.48 654.64 C 607.60 647.95 607.15 641.21 606.16 634.53 C 602.06 641.98 598.54 649.77 594.00 656.97 C 589.00 650.13 585.98 642.05 581.70 634.76 C 580.63 641.73 580.07 648.78 579.13 655.77 C 577.78 655.76 576.43 655.73 575.10 655.70 Z" />
<path fill="#000000" opacity="1.00" d=" M 637.48 625.30 C 644.52 625.19 651.56 625.20 658.60 625.28 C 658.59 626.46 658.58 627.65 658.58 628.85 C 652.95 629.03 647.32 628.66 641.71 629.18 C 641.77 632.31 641.78 635.44 641.78 638.58 C 647.14 638.62 652.51 638.57 657.88 638.62 C 657.86 639.52 657.82 641.31 657.80 642.20 C 652.42 642.23 647.04 642.19 641.66 642.25 C 641.72 643.98 641.83 645.71 641.98 647.45 C 642.94 648.93 641.66 650.55 641.53 652.10 C 647.22 652.18 652.92 652.01 658.61 652.21 C 658.60 653.39 658.59 654.57 658.59 655.77 C 651.56 655.84 644.54 655.79 637.52 655.80 C 637.36 645.63 637.45 635.47 637.48 625.30 Z" />
<path fill="#000000" opacity="1.00" d=" M 683.50 655.75 C 683.60 645.20 683.20 634.63 683.72 624.10 C 688.81 628.81 692.97 634.42 697.63 639.55 C 699.98 642.48 703.05 644.96 704.57 648.48 C 704.66 640.74 704.52 633.01 704.70 625.27 C 706.08 625.25 707.47 625.25 708.88 625.25 C 708.93 635.77 708.98 646.30 708.84 656.82 C 706.18 654.96 704.29 652.31 702.16 649.93 C 697.38 644.30 692.41 638.82 687.71 633.13 C 687.61 640.69 687.74 648.25 687.64 655.81 C 686.24 655.77 684.88 655.77 683.50 655.75 Z" />
<path fill="#000000" opacity="1.00" d=" M 731.65 625.27 C 740.31 625.23 748.97 625.18 757.63 625.31 C 757.60 626.26 757.54 628.16 757.51 629.11 C 753.93 629.09 750.35 629.10 746.77 629.14 C 746.76 638.02 746.87 646.91 746.71 655.79 C 745.30 655.78 743.91 655.78 742.53 655.78 C 742.46 646.89 742.48 638.01 742.51 629.13 C 738.88 629.12 735.27 629.08 731.66 629.12 C 731.64 627.83 731.63 626.54 731.65 625.27 Z" />
</g>
</svg>
