<?xml version="1.0" encoding="UTF-8" ?>
<!DOCTYPE svg PUBLIC "-//W3C//DTD SVG 1.1//EN" "http://www.w3.org/Graphics/SVG/1.1/DTD/svg11.dtd">
<svg width="1240pt" height="1240pt" viewBox="0 0 1240 1240" version="1.1" xmlns="http://www.w3.org/2000/svg">
<g id="#ffffffff">
<path fill="#ffffff" opacity="1.00" d=" M 0.00 0.00 L 1240.00 0.00 L 1240.00 1240.00 L 0.00 1240.00 L 0.00 0.00 M 324.71 405.19 C 324.69 408.65 324.69 412.11 324.72 415.58 C 337.75 416.14 351.56 418.61 361.90 427.15 C 371.58 435.09 376.30 447.36 378.69 459.32 C 382.37 478.30 382.09 497.74 382.08 516.99 C 382.08 600.66 382.08 684.32 382.08 767.99 C 382.20 778.78 382.11 789.92 378.22 800.14 C 375.38 807.93 369.51 814.52 362.06 818.16 C 350.71 823.73 337.76 824.44 325.33 824.61 C 325.32 828.04 325.32 831.47 325.33 834.91 C 360.89 834.75 396.45 833.86 432.01 833.49 C 470.32 833.50 508.63 835.63 546.95 834.71 C 586.28 834.27 625.61 832.88 664.94 833.95 C 694.01 834.77 723.10 835.29 752.18 834.55 C 777.12 834.22 802.07 833.74 827.01 833.49 C 856.49 833.49 885.94 834.89 915.41 834.91 C 915.41 831.47 915.41 828.04 915.41 824.61 C 907.32 824.54 899.19 824.11 891.26 822.46 C 882.53 820.65 873.70 817.08 867.77 810.17 C 861.09 802.47 859.00 791.93 858.81 782.01 C 858.80 684.34 858.80 586.67 858.81 488.99 C 858.89 482.27 858.61 475.49 856.94 468.95 C 853.12 453.45 843.48 439.88 831.50 429.54 C 813.98 414.55 791.28 405.05 768.06 405.19 C 751.37 405.20 734.69 405.20 718.01 405.19 C 717.99 408.65 717.99 412.11 718.01 415.58 C 732.52 416.15 748.26 419.37 758.61 430.38 C 769.74 442.39 772.61 459.35 774.16 475.06 C 776.19 500.00 775.01 525.04 775.33 550.03 C 775.33 619.03 775.33 688.03 775.33 757.03 C 775.07 770.29 776.42 783.88 772.61 796.79 C 770.38 804.72 765.50 812.04 758.40 816.40 C 748.41 822.59 736.36 823.94 724.87 824.48 C 712.37 824.81 699.59 824.43 687.59 820.57 C 679.23 817.92 671.46 812.53 667.33 804.64 C 662.27 795.31 661.95 784.40 662.17 774.05 C 662.15 677.38 662.20 580.71 662.14 484.04 C 662.30 464.91 652.88 446.78 639.35 433.68 C 621.03 415.86 595.75 404.69 570.02 405.19 C 553.79 405.21 537.56 405.19 521.33 405.20 C 521.32 408.65 521.32 412.11 521.35 415.57 C 534.21 416.15 547.81 418.53 558.11 426.81 C 567.43 434.24 572.33 445.73 574.83 457.10 C 578.80 475.42 578.69 494.30 578.70 512.95 C 578.70 596.32 578.70 679.69 578.70 763.05 C 578.64 772.75 579.15 782.56 577.15 792.12 C 575.59 799.99 572.20 807.80 566.06 813.17 C 558.40 819.98 548.03 822.56 538.09 823.74 C 525.79 825.03 513.28 824.95 501.05 823.04 C 491.11 821.36 480.78 817.76 474.17 809.76 C 467.53 801.82 465.67 791.10 465.50 781.04 C 465.49 682.02 465.51 582.99 465.50 483.97 C 465.56 472.57 462.28 461.27 456.58 451.43 C 448.82 437.98 437.10 427.09 423.84 419.16 C 409.44 410.59 392.88 405.27 376.04 405.20 C 358.93 405.19 341.82 405.21 324.71 405.19 Z" />
</g>
<g id="#5f545aff">
<path fill="#eee" opacity="1.00" d=" M 324.71 405.19 C 341.82 405.21 358.93 405.19 376.04 405.20 C 392.88 405.27 409.44 410.59 423.84 419.16 C 437.10 427.09 448.82 437.98 456.58 451.43 C 462.28 461.27 465.56 472.57 465.50 483.97 C 465.51 582.99 465.49 682.02 465.50 781.04 C 465.67 791.10 467.53 801.82 474.17 809.76 C 480.78 817.76 491.11 821.36 501.05 823.04 C 513.28 824.95 525.79 825.03 538.09 823.74 C 548.03 822.56 558.40 819.98 566.06 813.17 C 572.20 807.80 575.59 799.99 577.15 792.12 C 579.15 782.56 578.64 772.75 578.70 763.05 C 578.70 679.69 578.70 596.32 578.70 512.95 C 578.69 494.30 578.80 475.42 574.83 457.10 C 572.33 445.73 567.43 434.24 558.11 426.81 C 547.81 418.53 534.21 416.15 521.35 415.57 C 521.32 412.11 521.32 408.65 521.33 405.20 C 537.56 405.19 553.79 405.21 570.02 405.19 C 595.75 404.69 621.03 415.86 639.35 433.68 C 652.88 446.78 662.30 464.91 662.14 484.04 C 662.20 580.71 662.15 677.38 662.17 774.05 C 661.95 784.40 662.27 795.31 667.33 804.64 C 671.46 812.53 679.23 817.92 687.59 820.57 C 699.59 824.43 712.37 824.81 724.87 824.48 C 736.36 823.94 748.41 822.59 758.40 816.40 C 765.50 812.04 770.38 804.72 772.61 796.79 C 776.42 783.88 775.07 770.29 775.33 757.03 C 775.33 688.03 775.33 619.03 775.33 550.03 C 775.01 525.04 776.19 500.00 774.16 475.06 C 772.61 459.35 769.74 442.39 758.61 430.38 C 748.26 419.37 732.52 416.15 718.01 415.58 C 717.99 412.11 717.99 408.65 718.01 405.19 C 734.69 405.20 751.37 405.20 768.06 405.19 C 791.28 405.05 813.98 414.55 831.50 429.54 C 843.48 439.88 853.12 453.45 856.94 468.95 C 858.61 475.49 858.89 482.27 858.81 488.99 C 858.80 586.67 858.80 684.34 858.81 782.01 C 859.00 791.93 861.09 802.47 867.77 810.17 C 873.70 817.08 882.53 820.65 891.26 822.46 C 899.19 824.11 907.32 824.54 915.41 824.61 C 915.41 828.04 915.41 831.47 915.41 834.91 C 885.94 834.89 856.49 833.49 827.01 833.49 C 802.07 833.74 777.12 834.22 752.18 834.55 C 723.10 835.29 694.01 834.77 664.94 833.95 C 625.61 832.88 586.28 834.27 546.95 834.71 C 508.63 835.63 470.32 833.50 432.01 833.49 C 396.45 833.86 360.89 834.75 325.33 834.91 C 325.32 831.47 325.32 828.04 325.33 824.61 C 337.76 824.44 350.71 823.73 362.06 818.16 C 369.51 814.52 375.38 807.93 378.22 800.14 C 382.11 789.92 382.20 778.78 382.08 767.99 C 382.08 684.32 382.08 600.66 382.08 516.99 C 382.09 497.74 382.37 478.30 378.69 459.32 C 376.30 447.36 371.58 435.09 361.90 427.15 C 351.56 418.61 337.75 416.14 324.72 415.58 C 324.69 412.11 324.69 408.65 324.71 405.19 Z" />
</g>
</svg>
