<?xml version="1.0" encoding="UTF-8"?>
<svg width="116px" height="153px" viewBox="0 0 116 153" version="1.1" xmlns="http://www.w3.org/2000/svg" xmlns:xlink="http://www.w3.org/1999/xlink">
    <!-- Generator: Sketch 43.1 (39012) - http://www.bohemiancoding.com/sketch -->
    <title>Untitled</title>
    <desc>Created with Sketch.</desc>
    <defs></defs>
    <g id="Page-1" stroke="none" stroke-width="1" fill="none" fill-rule="evenodd">
        <g id="highpoint_center_stacked" transform="translate(-588.000000, -166.000000)" fill-rule="nonzero" fill="#231F20">
            <path d="M588.83,166.19 L588.83,209.62 L619.65,209.62 L619.65,318.62 L671.48,318.62 L671.48,209.62 L702.3,209.62 L702.3,166.19 L588.83,166.19 Z M415.12,166.19 L415.12,318.62 L467.42,318.62 L467.42,243.7 L467.89,243.7 L510.89,318.65 L563.66,318.65 L563.66,166.19 L511.78,166.19 L511.78,241.14 L511.31,241.14 L468.58,166.19 L415.12,166.19 Z M328.5,318.62 L380.33,318.62 L380.33,166.19 L328.5,166.19 L328.5,318.62 Z M227.64,211.02 C245.85,211.02 254.96,222.93 254.96,241.37 C254.96,263.79 245.39,273.82 226.71,273.82 C209.43,273.82 200.09,262.38 200.09,243 C200.09,224.32 208.03,211 227.64,211 L227.64,211.02 Z M145.46,243 C145.46,292.5 179.08,322.62 227.88,322.62 C270.37,322.62 309.13,297.17 309.13,240.62 C309.13,196.02 278.08,162.17 226.48,162.17 C188.42,162.17 145.48,185.75 145.48,242.95 L145.46,243 Z M80.81,218.95 C80.81,232.73 68.9,234.59 62.37,234.59 L52.07,234.59 L52.07,202.84 L63.28,202.84 C71.69,202.84 80.79,206.84 80.79,218.95 L80.81,218.95 Z M0,166.19 L0,318.62 L52.07,318.62 L52.07,271.02 L80.79,271.02 C99.7,271.02 134.96,266.35 134.96,217.32 C134.96,187.44 117.45,166.19 83.83,166.19 L0,166.19 Z" id="Shape"></path>
        </g>
    </g>
</svg>