<?xml version="1.0" encoding="utf-8"?>
<!-- Generator: Adobe Illustrator 22.0.1, SVG Export Plug-In . SVG Version: 6.00 Build 0)  -->
<svg version="1.1" id="Layer_1" xmlns="http://www.w3.org/2000/svg" xmlns:xlink="http://www.w3.org/1999/xlink" x="0px" y="0px"
	 viewBox="0 0 792 612" style="enable-background:new 0 0 792 612;" xml:space="preserve">
<g>
	<g>
		<path d="M267.3,315.9v-21.2h-8.8v21.2h-7.4v-48.7h7.4v20.5h8.8v-20.5h7.4v48.7H267.3z"/>
		<path d="M289.6,315.9v-48.7h7.4v48.7H289.6z"/>
		<path d="M334.2,278.1v3.3l-7.1,0.3v-2.9c0-3.9-1.5-5.6-4.3-5.6c-2.9,0-4.3,1.7-4.3,4.9v26.6c0,3.2,1.4,4.9,4.2,4.9
			c2.9,0,4.2-1.7,4.2-5.6v-8.4h-4.2v-6.8h11.4v15.9c0,7.4-4.2,11.7-11.6,11.7c-7.3,0-11.5-4.3-11.5-11.7v-26.7
			c0-7.4,4.2-11.7,11.5-11.7C330,266.4,334.2,270.7,334.2,278.1z"/>
		<path d="M364.3,315.9v-21.2h-8.8v21.2h-7.4v-48.7h7.4v20.5h8.8v-20.5h7.4v48.7H364.3z"/>
		<path d="M397.6,267.1c7.9,0,12.3,4.3,12.3,12.3v3.9c0,8-4.3,12.3-12.3,12.3h-3.3v20.2h-7.4v-48.7H397.6z M394.3,288.8h3
			c3.5,0,5.1-1.9,5.1-6v-2.9c0-4.1-1.6-6-5.1-6h-3V288.8z"/>
		<path d="M445.6,278.8v25.5c0,7.7-4.5,12.3-11.9,12.3s-11.9-4.7-11.9-12.3v-25.5c0-7.7,4.5-12.3,11.9-12.3S445.6,271.1,445.6,278.8
			z M429.2,278.8v25.3c0,3.6,1.6,5.6,4.5,5.6s4.5-1.9,4.5-5.6v-25.3c0-3.6-1.6-5.6-4.5-5.6S429.2,275.2,429.2,278.8z"/>
		<path d="M459.8,315.9v-48.7h7.4v48.7H459.8z"/>
		<path d="M498.8,315.9l-9.7-32.3H489v32.3h-7v-48.7h8.2l8.7,29h0.1v-29h7v48.7H498.8z"/>
		<path d="M532.9,274.1v41.8h-7.4v-41.8h-7.9v-7h23.1v7H532.9z"/>
	</g>
	<g>
		<path d="M294.2,336.5h4.4c2.5,0,4.9,0.9,4.9,3.8c0,3.3-2.5,3.9-5.3,3.9h-1.7v5.4h-2.3V336.5z M298,342.2c1.3,0,3.1-0.1,3.1-1.9
			c0-1.6-1.5-1.8-2.8-1.8h-1.7v3.7H298z"/>
		<path d="M308.3,336.5h4.6c2.5,0,4.9,0.8,4.9,3.8c0,1.9-1.1,3.3-3,3.6l3.5,5.8h-2.8l-3-5.6h-1.7v5.6h-2.3V336.5z M312.4,342.1
			c1.3,0,2.9-0.1,2.9-1.8c0-1.6-1.4-1.7-2.7-1.7h-2v3.6H312.4z"/>
		<path d="M329.1,336.2c4.1-0.1,7,2.7,7,6.9c0,4.1-2.9,6.9-7,6.9c-4.1,0-7-2.8-7-6.9C322.1,338.9,325,336.2,329.1,336.2z
			 M329.1,347.9c2.7,0,4.5-2.1,4.5-4.9c0-2.6-1.8-4.7-4.5-4.7c-2.7,0-4.5,2.1-4.5,4.7C324.6,345.8,326.4,347.9,329.1,347.9z"/>
		<path d="M341.3,336.5h4.4c2.5,0,4.9,0.9,4.9,3.8c0,3.3-2.5,3.9-5.3,3.9h-1.7v5.4h-2.3V336.5z M345,342.2c1.3,0,3.1-0.1,3.1-1.9
			c0-1.6-1.5-1.8-2.8-1.8h-1.7v3.7H345z"/>
		<path d="M355.3,336.5h8.7v2.1h-6.4v3.2h6v2.1h-6v3.6h6.7v2.1h-9.1V336.5z"/>
		<path d="M369.7,336.5h4.6c2.5,0,4.9,0.8,4.9,3.8c0,1.9-1.1,3.3-3,3.6l3.5,5.8h-2.8l-3-5.6H372v5.6h-2.3V336.5z M373.8,342.1
			c1.3,0,2.9-0.1,2.9-1.8c0-1.6-1.4-1.7-2.7-1.7h-2v3.6H373.8z"/>
		<path d="M387.2,338.6h-4v-2.1h10.4v2.1h-4v11h-2.3V338.6z"/>
		<path d="M402.2,344l-4.9-7.5h2.9l3.2,5.2l3.3-5.2h2.8l-4.9,7.5v5.6h-2.3V344z"/>
		<path d="M433.5,348.7c-1.6,0.9-3.4,1.3-5.4,1.3c-4.1,0-7-2.8-7-6.9c0-4.2,2.9-7,7-7c2,0,3.8,0.4,5.2,1.7l-1.7,1.7
			c-0.8-0.8-2.1-1.3-3.4-1.3c-2.7,0-4.5,2.1-4.5,4.7c0,2.8,1.8,4.9,4.5,4.9c1.2,0,2.3-0.2,3.1-0.7v-3.1h-2.7V342h5V348.7z"/>
		<path d="M439.2,336.5h4.6c2.5,0,4.9,0.8,4.9,3.8c0,1.9-1.1,3.3-3,3.6l3.5,5.8h-2.8l-3-5.6h-1.7v5.6h-2.3V336.5z M443.4,342.1
			c1.3,0,2.9-0.1,2.9-1.8c0-1.6-1.4-1.7-2.7-1.7h-2v3.6H443.4z"/>
		<path d="M460,336.2c4.1-0.1,7,2.7,7,6.9c0,4.1-2.9,6.9-7,6.9c-4.1,0-7-2.8-7-6.9C453,338.9,455.9,336.2,460,336.2z M460,347.9
			c2.7,0,4.5-2.1,4.5-4.9c0-2.6-1.8-4.7-4.5-4.7c-2.7,0-4.5,2.1-4.5,4.7C455.5,345.8,457.3,347.9,460,347.9z"/>
		<path d="M482.7,344.8c0,3.2-2.3,5.2-5.3,5.2s-5.3-2-5.3-5.2v-8.3h2.3v8.3c0,1.3,0.7,3,3,3c2.2,0,3-1.7,3-3v-8.3h2.3V344.8z"/>
		<path d="M488.5,336.5h4.4c2.5,0,4.9,0.9,4.9,3.8c0,3.3-2.5,3.9-5.3,3.9h-1.7v5.4h-2.3V336.5z M492.3,342.2c1.3,0,3.1-0.1,3.1-1.9
			c0-1.6-1.5-1.8-2.8-1.8h-1.7v3.7H492.3z"/>
	</g>
</g>
<rect x="376.6" y="138.1" width="5.1" height="106"/>
<rect x="410.3" y="138.1" width="5.1" height="106"/>
<rect x="393.5" y="112.1" width="5.1" height="132"/>
<rect x="410.3" y="366.8" transform="matrix(-1 -3.923045e-08 3.923045e-08 -1 825.6538 839.6583)" width="5.1" height="106"/>
<rect x="376.6" y="366.8" transform="matrix(-1 -3.923045e-08 3.923045e-08 -1 758.3461 839.6583)" width="5.1" height="106"/>
<rect x="393.5" y="366.8" transform="matrix(-1 -3.923045e-08 3.923045e-08 -1 792 865.6613)" width="5.1" height="132"/>
</svg>
