<svg xmlns="http://www.w3.org/2000/svg" viewBox="0 0 1793.31 1393.25"><defs><style>.cls-1,.cls-2{fill:none;stroke:#ddd;stroke-miterlimit:10;}.cls-1{stroke-width:3px;}</style></defs><title>Asset 2</title><g id="Layer_2" data-name="Layer 2"><g id="Layer_1-2" data-name="Layer 1"><g id="Layer_2-2" data-name="Layer 2"><g id="Layer_2-2-2" data-name="Layer 2-2"><polyline class="cls-1" points="1502.67 1030.41 792.32 1019.98 798.86 587.58 762.13 449.2 866.28 156.03"/><polyline class="cls-1" points="956.01 1334.52 905.27 1195.51 907.07 416.7 969.6 252.65"/><polyline class="cls-1" points="792.68 995.72 1007.54 764.82 1465.55 370.55"/><polyline class="cls-1" points="1281.08 608.93 1246.48 557.65 788.49 552.05"/><polyline class="cls-1" points="1691.5 598.57 1473.11 620.83 1196.31 602.49"/><polyline class="cls-1" points="839.8 228.88 869.59 223.13 1400.49 382.2 1680.88 597.58"/><polyline class="cls-1" points="969.3 957.21 1005.15 919.88 1011.89 501.31 1179.87 76.97"/><polyline class="cls-1" points="905.97 891.7 1421.78 902.87 1602.56 885.12 1769.95 926.41"/><path class="cls-1" d="M1718.89,713c-4.69,1.12-414.23,33.48-414.23,33.48L1141.35,896.8"/><polyline class="cls-1" points="1069.47 267.46 1094.58 261.45 1417.77 355.17 1447.11 339.82 1475.84 348.35"/><polyline class="cls-1" points="852.15 201.51 1407.32 370.62 1465.55 370.55 1516.16 261.36 1596.45 171.87"/><polyline class="cls-1" points="1793.27 1023.86 1502.67 1030.41 1217.41 950.55 984.3 949.86 905.76 983.39 848.82 991.6 757.94 1018.76 525.64 1008.93 0.75 704.84"/><path class="cls-1" d="M1629.58,1173.33c2-2.77,66.22-147.27,66.22-147.27l-37-424.15"/><polyline class="cls-1" points="1174.82 316.51 1152.32 375.17 1157.63 383.63 1241.88 420.77 1308.2 506"/><line class="cls-1" x1="1305.97" y1="507.93" x2="1369.7" y2="613.98"/><line class="cls-1" x1="1358.15" y1="594.76" x2="1355.81" y2="612.71"/><line class="cls-1" x1="1310.14" y1="505.54" x2="1399.01" y2="615.38"/><polyline class="cls-1" points="1163.68 311.25 1144.51 371.79 1135.28 383.43 1068.16 359.18 1050.98 356.6 1034.92 334.37 1055.31 280.71"/><line class="cls-2" x1="1300.29" y1="751.64" x2="1360.02" y2="822.85"/><line class="cls-2" x1="1270.12" y1="780.87" x2="1343.01" y2="867.78"/><polyline class="cls-2" points="1283.96 797.37 1258.86 819.25 1257.44 830.29 1314.58 900.54"/><polyline class="cls-2" points="545.25 1017.42 619.17 1016.63 639.72 1005.78 664.48 1005.78 682.47 1016.11 663.54 1026.62 644.06 1028.43 621.38 1016.25"/><line class="cls-2" x1="666.76" y1="1007.1" x2="669.49" y2="1023.32"/><line class="cls-2" x1="1105.47" y1="258.86" x2="849.65" y2="176.48"/><line class="cls-2" x1="938.82" y1="205.19" x2="955.98" y2="161.33"/><line class="cls-2" x1="1023.88" y1="232.58" x2="1069.58" y2="125.2"/><line class="cls-2" x1="942.27" y1="196.36" x2="1028.49" y2="221.76"/><line class="cls-1" x1="273.29" y1="319.66" x2="111.53" y2="769.02"/><line class="cls-1" x1="263.49" y1="316.13" x2="101.73" y2="765.49"/></g><g id="Layer_3" data-name="Layer 3"><polyline class="cls-2" points="793.33 1104.18 795.3 1064.56 831.51 1048.26 937.37 1051.58 980.89 1069.81"/><polyline class="cls-2" points="794.24 1085.83 713.34 1105.18 523.71 1098.98 526.59 1063.14 545.25 1017.42 541.46 969.63 545.85 936.11 600.61 848.5 635.38 763.46 633.83 701.11 599.18 643.01 595.27 629.87 597.71 627.24 607.92 626.57 688.75 644.99 682.47 1016.11 792.32 1019.98"/><line class="cls-2" x1="541.46" y1="969.63" x2="898.77" y2="974.09"/><line class="cls-2" x1="551.11" y1="927.69" x2="988.45" y2="937.27"/><line class="cls-2" x1="575.25" y1="889.07" x2="888.54" y2="892.83"/><line class="cls-2" x1="600.61" y1="848.51" x2="906.06" y2="851.92"/><line class="cls-2" x1="581.93" y1="803.02" x2="1004.93" y2="811.05"/><line class="cls-2" x1="635.38" y1="763.46" x2="1005.46" y2="767.31"/><line class="cls-2" x1="687.45" y1="721.83" x2="1051.2" y2="726.2"/><line class="cls-2" x1="595.61" y1="856.5" x2="794.75" y2="858.89"/><line class="cls-2" x1="620.35" y1="679" x2="1098.9" y2="686.18"/><polyline class="cls-2" points="1020.23 756.41 1027.76 764.21 1019.29 780.48 1031.95 854.89 1053.53 871.88 1104.19 844.25"/><polyline class="cls-2" points="1043.97 864.5 1038.69 875.43 1043.11 893.89"/><line class="cls-2" x1="636.53" y1="556.2" x2="787.46" y2="552.91"/><polyline class="cls-2" points="688.91 555.05 690.04 577.66 800.6 586.14 924.95 239.72"/><line class="cls-2" x1="677.46" y1="507.56" x2="668.22" y2="554.93"/><line class="cls-2" x1="765.56" y1="462.47" x2="1134.08" y2="468.79"/><polyline class="cls-2" points="740.14 279.25 1234.27 459.63 1286.41 522.17"/><line class="cls-2" x1="885.27" y1="227.84" x2="786.62" y2="506.95"/><line class="cls-2" x1="777.52" y1="506.25" x2="1227.31" y2="514.28"/><polyline class="cls-2" points="1176.34 555 1329.79 430.67 1485.94 17"/><line class="cls-2" x1="1453.12" y1="0.19" x2="1258.37" y2="488.54"/><line class="cls-2" x1="1405.78" y1="4.32" x2="1195.02" y2="539.87"/><line class="cls-2" x1="1158.75" y1="513.49" x2="1358.44" y2="8.45"/><polyline class="cls-2" points="1120.26 669.07 1119.19 506.42 1303.32 36.02"/><line class="cls-2" x1="799.42" y1="597.76" x2="1196.31" y2="602.49"/><line class="cls-2" x1="798.08" y1="639.04" x2="1120.1" y2="644.57"/><polyline class="cls-2" points="1660.26 504.82 1469.69 620.6 1304.66 746.51"/><polyline class="cls-2" points="1371.01 695.89 1380.85 771.86 1328.15 900.84 1326.08 1027.83"/><polyline class="cls-2" points="1109.96 1024.64 1111.44 938.47 1327.49 941.62"/><line class="cls-2" x1="1222.1" y1="896.71" x2="1220.02" y2="1026.27"/><polyline class="cls-2" points="1005.96 1023.12 1007.87 981.16 1326.8 983.82"/><polyline class="cls-2" points="799.81 343.13 943.51 422.69 949.41 421.27 1011.49 265.64"/><line class="cls-2" x1="1479.14" y1="341.23" x2="1511.53" y2="353.12"/><line class="cls-2" x1="1051.26" y1="277.57" x2="979.13" y2="466.14"/><line class="cls-2" x1="1077.59" y1="467.82" x2="1101.76" y2="411.26"/><line class="cls-2" x1="1109.27" y1="414" x2="1237.11" y2="83.41"/><line class="cls-2" x1="1404.78" y1="351.41" x2="1527.94" y2="29.24"/><polyline class="cls-2" points="1576.82 216.32 1465.21 193.31 1209.08 91.83"/><line class="cls-2" x1="1560.61" y1="134.25" x2="1375.94" y2="61.5"/><line class="cls-2" x1="1439.32" y1="261.36" x2="1451.53" y2="341.14"/><line class="cls-2" x1="1450.85" y1="230.9" x2="1518.48" y2="258.78"/><line class="cls-2" x1="1508.77" y1="202.3" x2="1508.77" y2="202.3"/><line class="cls-2" x1="1552.8" y1="81.56" x2="1508.77" y2="202.3"/><line class="cls-2" x1="1084.54" y1="698.54" x2="1140.3" y2="763.75"/><line class="cls-2" x1="1148.72" y1="643.29" x2="1217.3" y2="723.5"/><line class="cls-2" x1="1181.59" y1="616.55" x2="1250.18" y2="696.76"/><line class="cls-2" x1="1215.07" y1="587.92" x2="1283.65" y2="668.13"/><line class="cls-2" x1="1277.77" y1="534.31" x2="1343.43" y2="611.1"/><line class="cls-2" x1="1342.17" y1="476.78" x2="1385.23" y2="530.41"/><line class="cls-2" x1="1374.35" y1="449.06" x2="1416.11" y2="501.07"/><line class="cls-2" x1="1411.64" y1="416.96" x2="1441.47" y2="454.37"/><line class="cls-2" x1="590.16" y1="1233.04" x2="592.78" y2="928.61"/><line class="cls-2" x1="1071.2" y1="134.42" x2="1432.35" y2="279.3"/><polyline class="cls-2" points="1175.79 361.82 1332.17 424.37 1365.39 456.76"/><line class="cls-2" x1="1410.41" y1="665.83" x2="1419.2" y2="735.52"/><line class="cls-2" x1="1449.47" y1="636.03" x2="1459.68" y2="732.22"/><line class="cls-2" x1="1491.44" y1="618.96" x2="1525.63" y2="1029.9"/><line class="cls-2" x1="1533.71" y1="615.44" x2="1567.89" y2="1026.39"/><line class="cls-2" x1="1575.3" y1="610.27" x2="1610.13" y2="1029"/><line class="cls-2" x1="1626.47" y1="720.84" x2="1652.96" y2="1027.03"/><line class="cls-2" x1="1509.79" y1="839.48" x2="1714.76" y2="823.15"/><polyline class="cls-2" points="1466.43 733.67 1478.2 854.08 1481.49 867.84 1497.38 884.15 1499.13 895.26"/><line class="cls-2" x1="1424.48" y1="1029.27" x2="1548.99" y2="1186.63"/><polyline class="cls-2" points="1468.68 1032.49 1445.88 1056.31 1411.42 1085.9"/><line class="cls-2" x1="1542.46" y1="1029.52" x2="1652.77" y2="1172.51"/><line class="cls-2" x1="1634.58" y1="1027.44" x2="1727.9" y2="1138.77"/><line class="cls-2" x1="1593.26" y1="1095.38" x2="1652.34" y2="1048.63"/><line class="cls-2" x1="1618.87" y1="1128.57" x2="1746.26" y2="1024.92"/><line class="cls-2" x1="1644.2" y1="1161.4" x2="1768.42" y2="1060.14"/><polyline class="cls-2" points="844.55 1351.86 801.36 1235.95 802.11 1174.46 792.08 1179.95 792.02 1222.73 801.36 1235.95"/><polyline class="cls-2" points="651.38 1392.92 801.55 1220.15 907.49 1178.21"/><polyline class="cls-2" points="746.47 1283.54 915.02 1222.21 1154.29 1261.77 1167.19 1199.42 1174.94 1190.92 1194.71 1193.36 1205.31 1203.69 1195.16 1258.16"/><polyline class="cls-2" points="692.56 1345.56 706.78 1346.69 993.83 1235.24"/><polyline class="cls-2" points="1048.99 1244.36 1052.91 1260.78 1066.19 1296.23"/><line class="cls-2" x1="796.24" y1="1355.79" x2="1052.91" y2="1260.78"/><line class="cls-2" x1="951.56" y1="1189.72" x2="947.33" y2="1227.56"/><line class="cls-2" x1="1193.72" y1="557.01" x2="1196.31" y2="602.49"/><line class="cls-2" x1="634.24" y1="717.5" x2="687.52" y2="717.52"/><polyline class="cls-2" points="591.11 1122.73 541.09 1123.03 534.84 1114.07 519.01 1111.88 514.28 1092.11 491.82 1023.21 501.79 968.18 515.89 958.47 532.13 954.58 539.51 938.63 564.28 892.38 563.11 878.11 570.03 866.49 566.96 853.66 572.61 852.32 585.13 873.25"/><line class="cls-2" x1="501.79" y1="968.19" x2="543.6" y2="969.66"/><line class="cls-2" x1="500.71" y1="974.18" x2="542.13" y2="978.14"/><polyline class="cls-2" points="515.17 1095.84 517.75 1074.11 531.35 1039.51 531.47 969.23 532.13 954.58"/><polyline class="cls-2" points="502.16 1054.92 482.2 1053.63 486.88 1012.74 505.19 997.1 520.9 995.35 529.3 1009.1"/><polyline class="cls-2" points="497.78 1041.51 505.61 1045.65 522.34 1041.65 531.37 1026.07"/><line class="cls-2" x1="531.38" y1="1020.75" x2="542.85" y2="1023.32"/><polyline class="cls-2" points="539.51 938.63 536.15 924.58 543.15 913.65 546.24 908.1 544.36 900.22 559.07 886.13 573.35 880.3 580.8 866"/><line class="cls-2" x1="541.81" y1="915.76" x2="550.73" y2="917.69"/><line class="cls-2" x1="546.24" y1="908.1" x2="555.59" y2="908.62"/><path class="cls-2" d="M543.31,931.54"/><line class="cls-2" x1="490.62" y1="926.27" x2="536.15" y2="924.58"/><line class="cls-2" x1="506.77" y1="902.35" x2="544.36" y2="900.22"/><line class="cls-2" x1="535.02" y1="877.99" x2="562.95" y2="877.55"/><line class="cls-2" x1="522.73" y1="852.79" x2="566.42" y2="853.8"/><polyline class="cls-2" points="570.67 836.77 560.74 835.38 540.73 837.24 532.1 829.72 532.57 818.95 548.95 815.02 562.27 815.03 568 812.52"/><polyline class="cls-2" points="572.75 853.6 571.31 839.82 572.15 822.95 565.9 803.77 572.83 777.88 591.45 751.03 592.15 733.96 587.15 725.42 568.07 713.48 564.17 701.63 572.84 683.29 580.12 678.1 600.05 676.78 606.94 673.27 605.73 668.24 586.14 635.36 583.7 628.49"/><polyline class="cls-2" points="688.75 644.99 687.46 639.62 580.7 613.75 560.23 680.72 554.05 698.29 552.89 716.85 556.88 742.39 545.33 762.08 535.64 769.46 534.96 793.33 567.52 797.72"/><polyline class="cls-2" points="544.81 763.22 549.58 783.16 556.66 796.25"/><line class="cls-2" x1="554.16" y1="725.01" x2="572.81" y2="716.45"/><polyline class="cls-2" points="581.2 765.8 600.03 761.29 597.61 737.85 592.15 733.96"/><polygon class="cls-2" points="601.98 762.27 611.83 767.21 626.16 765.4 611.49 760 601.98 762.27"/><line class="cls-2" x1="611.66" y1="759.8" x2="611.83" y2="767.21"/><line class="cls-2" x1="626.37" y1="765.6" x2="636.94" y2="763.47"/><path class="cls-2" d="M587.15,725.43c.54.91,14.93-2.35,14.93-2.35l32.28-.87"/><line class="cls-2" x1="598.56" y1="723.85" x2="597.61" y2="737.85"/><line class="cls-2" x1="574.62" y1="632.76" x2="600.09" y2="618.45"/><line class="cls-2" x1="600.04" y1="644.45" x2="611.67" y2="627.43"/><polyline class="cls-2" points="585.08 632.36 575.33 644.75 574.52 662.16 580.12 678.1"/><line class="cls-2" x1="564.82" y1="665.72" x2="574.55" y2="682.07"/></g></g></g></g></svg>