<?xml version="1.0" standalone="no"?>
<!DOCTYPE svg PUBLIC "-//W3C//DTD SVG 20010904//EN"
 "http://www.w3.org/TR/2001/REC-SVG-20010904/DTD/svg10.dtd">
<svg version="1.0" xmlns="http://www.w3.org/2000/svg"
 width="194.000000pt" height="194.000000pt" viewBox="0 0 194.000000 194.000000"
 preserveAspectRatio="xMidYMid meet">
<metadata>
Created by potrace 1.11, written by Peter Selinger 2001-2013
</metadata>
<g transform="translate(0.000000,194.000000) scale(0.100000,-0.100000)"
fill="#000000" stroke="none">
<path d="M0 1890 c0 -57 -11 -52 126 -51 57 1 83 -3 86 -11 3 -7 5 -388 5
-846 0 -781 -1 -835 -18 -855 -15 -19 -28 -22 -101 -24 -45 -1 -86 -2 -90 -2
-5 -1 -8 -23 -8 -50 l0 -50 965 0 965 0 0 50 c0 32 -4 49 -12 50 -7 0 -48 2
-91 2 -129 3 -117 -90 -117 869 l0 819 25 24 c22 23 32 25 110 25 l85 0 0 50
0 50 -965 0 -965 0 0 -50z m1331 -71 c18 -18 19 -38 19 -383 0 -335 -1 -366
-18 -386 -18 -22 -19 -22 -366 -23 -338 0 -348 0 -368 20 -20 21 -20 30 -20
375 0 195 3 364 7 377 4 12 16 26 28 31 12 5 174 9 360 9 320 -1 340 -2 358
-20z m-2 -913 c21 -19 21 -26 21 -392 l0 -373 -25 -19 c-23 -18 -42 -19 -370
-18 -331 1 -347 2 -361 20 -17 24 -16 -5 -16 414 0 333 0 344 20 365 21 22 23
22 365 22 325 0 346 -1 366 -19z"/>
</g>
</svg>
